<svg width="177" height="48" viewBox="0 0 177 48" fill="none" xmlns="http://www.w3.org/2000/svg">
<g clip-path="url(#clip0_2946_8931)">
<path d="M70.4213 11.8703C70.9134 12.2909 71.2196 12.8149 71.4991 13.3916C71.5269 13.4479 71.5546 13.5042 71.5831 13.5622C71.7965 13.9968 72.0052 14.4336 72.2129 14.8709C72.4053 15.2753 72.6047 15.6758 72.8061 16.0757C73.0104 16.4824 73.2068 16.8925 73.4021 17.3035C73.5717 17.6597 73.7461 18.0133 73.9235 18.3657C74.153 18.8215 74.375 19.2805 74.5939 19.7414C74.7636 20.0976 74.9379 20.4512 75.1154 20.8036C75.3449 21.2594 75.5668 21.7184 75.7858 22.1794C75.9778 22.5825 76.1765 22.9819 76.3773 23.3806C76.549 23.7224 76.7157 24.0663 76.8797 24.4118C77.1773 25.0362 77.4811 25.6574 77.7864 26.2781C77.9084 26.5263 78.0303 26.7745 78.1521 27.0227C78.3611 27.4485 78.5701 27.8742 78.7793 28.2999C78.9081 28.5619 79.0367 28.8241 79.1651 29.0864C79.2122 29.1825 79.2593 29.2785 79.3066 29.3745C79.3714 29.5062 79.436 29.6381 79.5005 29.7699C79.5194 29.8083 79.5384 29.8466 79.5579 29.8862C79.6409 30.0565 79.7012 30.2078 79.7474 30.3928C78.3708 30.3928 76.9942 30.3928 75.5759 30.3928C75.2898 29.8028 75.0038 29.2128 74.7091 28.6049C74.403 27.9772 74.403 27.9772 74.0964 27.3497C74.0329 27.2199 73.9695 27.0901 73.9062 26.9602C73.888 26.9232 73.8699 26.8862 73.8513 26.8482C73.6801 26.4971 73.5185 26.1428 73.3547 25.7878C69.9399 25.7699 66.5252 25.752 63.007 25.7336C62.9713 25.8409 62.9355 25.9482 62.8987 26.0587C62.8488 26.1662 62.7969 26.2728 62.7431 26.3784C62.7123 26.4394 62.6815 26.5004 62.6498 26.5632C62.6335 26.5952 62.6173 26.6271 62.6005 26.6601C62.5138 26.8307 62.4278 27.0017 62.3419 27.1727C62.3246 27.2071 62.3073 27.2415 62.2894 27.277C62.0329 27.788 61.7899 28.3053 61.5443 28.8217C61.294 29.3401 61.0437 29.8586 60.7858 30.3928C59.4092 30.3928 58.0326 30.3928 56.6143 30.3928C56.695 30.1504 56.7758 29.9491 56.89 29.7242C56.9063 29.692 56.9225 29.6598 56.9393 29.6266C56.9741 29.5576 57.009 29.4887 57.044 29.4198C57.1368 29.2371 57.2288 29.0541 57.3209 28.871C57.3393 28.8343 57.3578 28.7976 57.3768 28.7599C57.5376 28.4393 57.6932 28.1164 57.8468 27.7923C58.06 27.3426 58.2799 26.8969 58.5037 26.4524C58.6819 26.0975 58.8547 25.7402 59.0251 25.3815C59.2429 24.9229 59.4672 24.468 59.6955 24.0146C59.8738 23.6596 60.0465 23.3023 60.217 22.9435C60.4334 22.4879 60.656 22.0359 60.883 21.5855C61.0546 21.2437 61.2213 20.8998 61.3853 20.5543C61.6829 19.9301 61.9866 19.309 62.2918 18.6885C62.4462 18.3746 62.6004 18.0605 62.7546 17.7465C62.7854 17.6837 62.8162 17.621 62.8479 17.5564C63.1054 17.0319 63.3621 16.507 63.6182 15.9819C63.6838 15.8474 63.7495 15.713 63.8152 15.5786C64.0117 15.1762 64.2073 14.7734 64.4001 14.3691C64.4879 14.1851 64.5761 14.0013 64.6643 13.8176C64.7054 13.7317 64.7462 13.6458 64.7868 13.5598C65.2599 12.5569 65.7933 11.806 66.8535 11.377C68.0131 10.9867 69.4326 11.1412 70.4213 11.8703ZM67.9371 14.6817C67.403 15.882 66.8694 17.0825 66.3389 18.2844C65.9098 19.2564 65.4789 20.2276 65.047 21.1983C65.0054 21.292 64.9638 21.3857 64.9222 21.4794C64.82 21.7096 64.7171 21.9394 64.6129 22.1688C64.5926 22.2137 64.5724 22.2586 64.5515 22.3049C64.5131 22.3897 64.4745 22.4744 64.4357 22.559C64.3345 22.7829 64.3345 22.7829 64.3073 23.0248C66.8638 23.0248 69.4204 23.0248 72.0544 23.0248C71.9481 22.7059 71.8562 22.4462 71.7074 22.1542C71.6898 22.1194 71.6722 22.0845 71.654 22.0486C71.5982 21.9382 71.5419 21.828 71.4856 21.7178C71.4126 21.5744 71.3398 21.4309 71.2672 21.2874C71.2483 21.2499 71.2293 21.2125 71.2098 21.174C71.021 20.7988 70.8405 20.4198 70.6599 20.0407C70.4117 19.5197 70.1584 19.0014 69.9042 18.4834C69.7693 18.2085 69.6346 17.9336 69.4999 17.6586C69.4731 17.6039 69.4463 17.5491 69.4186 17.4927C69.1261 16.8952 68.8354 16.2968 68.5453 15.6981C68.3807 15.3583 68.2155 15.0188 68.0454 14.6817C68.0097 14.6817 67.9739 14.6817 67.9371 14.6817Z" fill="white"/>
<path d="M44.3996 11.2074C44.5144 11.2073 44.6292 11.2072 44.744 11.2071C45.053 11.2069 45.362 11.207 45.671 11.2071C45.9949 11.2073 46.3189 11.2072 46.6429 11.2071C47.1858 11.207 47.7288 11.2071 48.2717 11.2074C48.9001 11.2077 49.5285 11.2076 50.1568 11.2073C50.6969 11.207 51.2371 11.207 51.7772 11.2071C52.0996 11.2072 52.4219 11.2072 52.7443 11.207C53.0466 11.2069 53.3488 11.207 53.6511 11.2073C53.7623 11.2074 53.8734 11.2074 53.9846 11.2072C54.1357 11.2071 54.2868 11.2073 54.4378 11.2075C54.4824 11.2074 54.527 11.2073 54.5729 11.2072C54.8745 11.2082 54.8745 11.2082 54.9349 11.2686C54.9402 11.3548 54.9418 11.4412 54.9419 11.5275C54.942 11.5827 54.9422 11.6378 54.9424 11.6946C54.9422 11.7846 54.9422 11.7846 54.9421 11.8764C54.9421 11.9681 54.9421 11.9681 54.9422 12.0616C54.9423 12.1911 54.9422 12.3207 54.9419 12.4502C54.9416 12.6492 54.9419 12.8483 54.9423 13.0473C54.9422 13.1728 54.9422 13.2983 54.9421 13.4238C54.9422 13.4838 54.9423 13.5438 54.9424 13.6056C54.9422 13.6607 54.942 13.7158 54.9419 13.7727C54.9418 13.8459 54.9418 13.8459 54.9417 13.9205C54.9349 14.0316 54.9349 14.0316 54.8807 14.0858C54.7437 14.0914 54.6081 14.0934 54.4711 14.0932C54.4059 14.0935 54.4059 14.0935 54.3395 14.0937C54.1928 14.0942 54.0462 14.0942 53.8995 14.0943C53.7948 14.0946 53.69 14.0948 53.5853 14.0951C53.359 14.0957 53.1328 14.0962 52.9065 14.0966C52.548 14.0971 52.1896 14.0982 51.8311 14.0994C50.8115 14.1028 49.7919 14.1057 48.7723 14.1075C48.2097 14.1085 47.6471 14.1101 47.0846 14.1123C46.787 14.1134 46.4895 14.1142 46.192 14.1144C45.9113 14.1145 45.6306 14.1154 45.3499 14.1168C45.2476 14.1172 45.1452 14.1173 45.0429 14.1171C44.0636 14.1156 42.9832 14.1588 42.1863 14.8049C41.145 15.8727 41.6715 18.7969 41.6617 19.4492C46.0419 19.4492 50.422 19.4492 54.9349 19.4492C54.9349 20.361 54.9349 21.2728 54.9349 22.2122C54.8293 22.3178 54.6683 22.273 54.5277 22.2733C54.4764 22.2732 54.4252 22.273 54.3723 22.2729C54.3183 22.2729 54.2643 22.273 54.2086 22.273C54.0261 22.2731 53.8436 22.2728 53.6611 22.2725C53.5308 22.2725 53.4006 22.2725 53.2704 22.2725C52.9892 22.2725 52.708 22.2724 52.4269 22.2721C52.0203 22.2716 51.6138 22.2715 51.2073 22.2714C50.5478 22.2713 49.8883 22.2709 49.2289 22.2704C48.5881 22.2699 47.9473 22.2696 47.3065 22.2693C47.2666 22.2693 47.2268 22.2693 47.1857 22.2693C46.8388 22.2692 46.492 22.269 46.1452 22.2689C44.6507 22.2684 43.1562 22.2673 41.6617 22.2663C41.6617 24.9481 41.6617 27.6298 41.6617 30.3928C40.3924 30.3928 39.123 30.3928 37.8152 30.3928C37.8104 28.3982 37.8064 26.4036 37.8042 24.4091C37.8039 24.1733 37.8036 23.9375 37.8033 23.7018C37.8033 23.6548 37.8032 23.6079 37.8031 23.5595C37.8022 22.8007 37.8005 22.0419 37.7985 21.2832C37.7965 20.5039 37.7953 19.7246 37.7948 18.9453C37.7945 18.4649 37.7936 17.9846 37.7918 17.5042C37.7907 17.1742 37.7903 16.8443 37.7906 16.5143C37.7908 16.3243 37.7906 16.1343 37.7894 15.9442C37.7827 14.6719 37.8694 13.6704 38.7991 12.7197C39.6195 11.9151 40.5881 11.5603 41.7057 11.3668C41.7577 11.3577 41.8097 11.3487 41.8633 11.3393C42.7039 11.2032 43.5506 11.2065 44.3996 11.2074Z" fill="white"/>
<path d="M88.5626 11.1541C88.679 11.1541 88.7955 11.1541 88.912 11.1541C89.2258 11.1541 89.5396 11.1544 89.8534 11.1548C90.1822 11.1551 90.5111 11.1551 90.8399 11.1552C91.4616 11.1554 92.0832 11.1558 92.7048 11.1563C93.413 11.157 94.1211 11.1573 94.8293 11.1575C96.285 11.1581 97.7408 11.1591 99.1965 11.1602C99.1965 12.1078 99.1965 13.0553 99.1965 14.0316C98.8706 14.0327 98.5447 14.0337 98.209 14.0348C97.1315 14.0385 96.0539 14.0427 94.9764 14.0472C94.3232 14.0499 93.67 14.0524 93.0168 14.0544C92.4472 14.0562 91.8777 14.0584 91.3081 14.061C91.0067 14.0624 90.7054 14.0635 90.404 14.0643C90.1199 14.065 89.8357 14.0662 89.5516 14.0677C89.4478 14.0682 89.3439 14.0685 89.2401 14.0686C87.7438 14.0549 87.7438 14.0549 86.4652 14.7359C85.9461 15.2952 85.9537 15.9118 85.9557 16.6319C85.9554 16.7307 85.955 16.8295 85.9546 16.9284C85.9536 17.1958 85.9537 17.4632 85.954 17.7306C85.9541 17.9544 85.9538 18.1781 85.9535 18.4019C85.9527 18.93 85.9528 19.4582 85.9534 19.9863C85.954 20.53 85.9533 21.0737 85.9518 21.6174C85.9506 22.0852 85.9503 22.5531 85.9506 23.0209C85.9508 23.2999 85.9506 23.5788 85.9497 23.8577C85.9489 24.1203 85.9491 24.3827 85.9501 24.6452C85.9503 24.7411 85.9501 24.8371 85.9496 24.933C85.9459 25.5955 85.9755 26.2421 86.4216 26.7769C87.552 27.8682 89.7876 27.5395 91.2267 27.5433C91.5058 27.5442 91.7849 27.5457 92.064 27.547C92.5905 27.5496 93.1169 27.5515 93.6434 27.5534C94.2436 27.5554 94.8438 27.5581 95.444 27.5608C96.6768 27.5664 97.9096 27.5712 99.1424 27.5756C99.1424 28.5053 99.1424 29.4349 99.1424 30.3928C97.6019 30.3963 96.0615 30.3993 94.5211 30.4011C94.3386 30.4013 94.1562 30.4015 93.9737 30.4017C93.9374 30.4017 93.9011 30.4018 93.8637 30.4018C93.278 30.4025 92.6923 30.4038 92.1066 30.4053C91.5043 30.4068 90.9019 30.4077 90.2996 30.408C89.9618 30.4083 89.6241 30.4087 89.2864 30.4099C88.9676 30.4111 88.6488 30.4114 88.33 30.4111C88.2139 30.4112 88.0977 30.4115 87.9816 30.4121C86.2324 30.4211 84.4044 30.1596 83.0927 28.8961C82.1246 27.9196 82.0058 26.6783 82.0087 25.3698C82.0086 25.2578 82.0084 25.1458 82.0081 25.0338C82.0076 24.7313 82.0078 24.4289 82.0082 24.1264C82.0084 23.8088 82.0082 23.4911 82.008 23.1735C82.0078 22.6402 82.0081 22.1069 82.0086 21.5735C82.0092 20.9585 82.009 20.3434 82.0084 19.7283C82.0079 19.1987 82.0078 18.669 82.0081 18.1394C82.0083 17.8238 82.0083 17.5081 82.008 17.1925C82.0076 16.8955 82.0079 16.5986 82.0085 16.3017C82.0086 16.1933 82.0086 16.0848 82.0083 15.9764C82.0057 14.6679 82.1461 13.4752 83.0808 12.4812C84.008 11.5864 85.3261 11.3161 86.5735 11.2144C86.6259 11.21 86.6783 11.2055 86.7323 11.2009C87.3426 11.1543 87.9507 11.153 88.5626 11.1541Z" fill="white"/>
<path d="M155.323 11.2145C155.889 11.1905 156.455 11.1723 157.022 11.1611C157.285 11.1558 157.548 11.1485 157.81 11.1368C159.653 11.0567 159.653 11.0567 160.061 11.4281C160.237 11.6396 160.359 11.8676 160.467 12.1192C160.543 12.2858 160.647 12.4183 160.763 12.5589C160.796 12.6019 160.829 12.6449 160.863 12.6892C160.912 12.752 160.912 12.752 160.961 12.816C161.257 13.2021 161.545 13.5924 161.828 13.9879C162.09 14.3532 162.363 14.7102 162.636 15.0671C162.875 15.3786 163.11 15.6925 163.341 16.009C163.608 16.3734 163.879 16.7339 164.154 17.0926C164.468 17.5035 164.779 17.9174 165.084 18.3349C165.222 18.5229 165.36 18.7104 165.501 18.8956C165.525 18.9261 165.548 18.9565 165.572 18.9879C165.632 19.0668 165.693 19.1456 165.753 19.2243C165.833 19.3409 165.833 19.3409 165.833 19.4492C166.066 19.229 166.259 18.9887 166.453 18.7348C166.52 18.6474 166.588 18.5601 166.655 18.4728C166.689 18.4282 166.724 18.3836 166.759 18.3376C166.924 18.124 167.09 17.9114 167.256 17.6987C167.512 17.3694 167.767 17.0392 168.021 16.7083C168.226 16.4409 168.434 16.1751 168.641 15.9089C168.826 15.672 169.009 15.4346 169.192 15.1964C169.441 14.873 169.691 14.5512 169.941 14.2295C170.126 13.9925 170.31 13.7551 170.493 13.5169C170.74 13.194 170.99 12.8728 171.241 12.5516C171.478 12.2459 171.715 11.9391 171.951 11.6316C172.007 11.5592 172.007 11.5592 172.064 11.4853C172.093 11.4383 172.122 11.3912 172.152 11.3427C172.3 11.1951 172.384 11.1828 172.589 11.1808C172.63 11.1817 172.671 11.1827 172.713 11.1837C172.756 11.1837 172.799 11.1836 172.844 11.1836C172.987 11.1838 173.13 11.1859 173.273 11.188C173.373 11.1885 173.472 11.1889 173.571 11.1892C173.832 11.1902 174.093 11.1929 174.355 11.1959C174.621 11.1986 174.888 11.1999 175.154 11.2012C175.677 11.2041 176.2 11.2088 176.723 11.2145C176.599 11.4007 176.476 11.584 176.338 11.7598C176.307 11.7991 176.277 11.8385 176.245 11.879C176.213 11.92 176.18 11.9611 176.147 12.0034C176.079 12.0909 176.01 12.1785 175.942 12.266C175.909 12.3086 175.875 12.3512 175.841 12.3951C175.719 12.5518 175.598 12.7092 175.477 12.8668C175.228 13.1903 174.978 13.512 174.728 13.8337C174.543 14.0707 174.359 14.3081 174.177 14.5463C173.928 14.8697 173.678 15.1915 173.427 15.5132C173.243 15.7502 173.059 15.9876 172.876 16.2258C172.628 16.5492 172.378 16.871 172.127 17.1927C171.943 17.4296 171.759 17.667 171.576 17.9052C171.328 18.2286 171.077 18.5504 170.827 18.8721C170.642 19.1091 170.459 19.3465 170.276 19.5847C170.028 19.9081 169.777 20.2299 169.527 20.5516C169.188 20.9857 169.188 20.9857 168.857 21.4259C168.752 21.563 168.64 21.6814 168.515 21.8006C167.901 22.4242 167.848 23.0552 167.852 23.8914C167.854 24.0161 167.856 24.1409 167.858 24.2656C167.862 24.4817 167.861 24.6977 167.86 24.9138C167.859 25.3213 167.863 25.7287 167.868 26.1363C167.874 26.688 167.874 27.2398 167.874 27.7916C167.875 28.6588 167.884 29.5256 167.892 30.3928C166.623 30.3928 165.353 30.3928 164.046 30.3928C164.049 29.8345 164.052 29.2763 164.055 28.7011C164.055 28.3465 164.056 27.992 164.055 27.6374C164.055 27.0752 164.055 26.513 164.06 25.9507C164.063 25.5411 164.064 25.1316 164.062 24.722C164.061 24.5054 164.062 24.2889 164.064 24.0723C164.123 23.0047 164.123 23.0047 163.706 22.0682C163.607 21.9663 163.502 21.8737 163.395 21.7788C163.299 21.6636 163.211 21.5444 163.121 21.4233C163.076 21.3646 163.031 21.3061 162.986 21.2476C162.942 21.1899 162.898 21.1322 162.854 21.0745C162.552 20.6806 162.248 20.2878 161.943 19.8962C161.602 19.4587 161.265 19.0186 160.928 18.5778C160.601 18.1487 160.27 17.7217 159.938 17.2957C159.598 16.8583 159.26 16.4182 158.924 15.9774C158.596 15.5482 158.266 15.1212 157.934 14.6953C157.593 14.2578 157.256 13.8177 156.919 13.3769C156.581 12.9343 156.241 12.4939 155.899 12.0542C155.867 12.0127 155.834 11.9712 155.801 11.9284C155.755 11.8691 155.755 11.8691 155.708 11.8087C155.679 11.7714 155.65 11.7341 155.62 11.6957C155.551 11.6081 155.48 11.522 155.409 11.4362C155.323 11.3228 155.323 11.3228 155.323 11.2145Z" fill="white"/>
<path d="M138.258 11.1603C143.818 11.1603 149.378 11.1603 155.107 11.1603C155.107 12.0899 155.107 13.0196 155.107 13.9774C152.961 13.9774 150.816 13.9774 148.605 13.9774C148.605 19.3945 148.605 24.8116 148.605 30.3928C147.336 30.3928 146.067 30.3928 144.759 30.3928C144.759 24.9757 144.759 19.5587 144.759 13.9774C142.614 13.9774 140.468 13.9774 138.258 13.9774C138.258 13.0478 138.258 12.1181 138.258 11.1603Z" fill="white"/>
<path d="M112.091 11.1603C113.378 11.1603 114.665 11.1603 115.991 11.1603C115.992 11.5951 115.993 12.0298 115.994 12.4778C115.996 13.8703 116 15.2628 116.004 16.6554C116.004 16.8718 116.005 17.0882 116.006 17.3047C116.006 17.3478 116.006 17.3909 116.006 17.4353C116.008 18.1322 116.009 18.829 116.01 19.5259C116.011 20.2415 116.013 20.957 116.016 21.6726C116.017 22.1138 116.018 22.555 116.018 22.9962C116.019 23.2991 116.02 23.602 116.021 23.9049C116.022 24.0795 116.022 24.254 116.022 24.4286C116.022 24.6184 116.023 24.8082 116.024 24.998C116.024 25.0524 116.023 25.1067 116.023 25.1628C116.029 25.8026 116.175 26.3725 116.587 26.8713C117.058 27.3297 117.763 27.4107 118.391 27.4721C118.438 27.4767 118.485 27.4814 118.533 27.4861C119.034 27.5319 119.532 27.5381 120.034 27.5387C120.135 27.5392 120.236 27.5398 120.337 27.5404C120.608 27.5418 120.878 27.5427 121.148 27.5434C121.433 27.5442 121.717 27.5457 122.001 27.5471C122.537 27.5496 123.073 27.5516 123.609 27.5534C124.221 27.5555 124.832 27.5581 125.443 27.5609C126.699 27.5664 127.955 27.5712 129.21 27.5756C129.21 28.5053 129.21 29.435 129.21 30.3928C127.744 30.3965 126.278 30.3995 124.812 30.4012C124.131 30.402 123.45 30.4032 122.769 30.405C122.175 30.4067 121.581 30.4077 120.987 30.4081C120.673 30.4083 120.359 30.4088 120.045 30.41C116.983 30.4212 116.983 30.4212 115.66 30.0813C115.576 30.0605 115.576 30.0605 115.491 30.0394C114.282 29.7242 113.233 29.151 112.578 28.0632C112.158 27.2481 112.082 26.3755 112.084 25.4736C112.084 25.412 112.084 25.3504 112.084 25.287C112.084 25.0822 112.084 24.8774 112.085 24.6726C112.085 24.5252 112.085 24.3778 112.084 24.2304C112.084 23.9138 112.085 23.5973 112.085 23.2807C112.085 22.823 112.086 22.3653 112.086 21.9076C112.086 21.1649 112.086 20.4222 112.087 19.6795C112.087 18.9583 112.087 18.2371 112.088 17.516C112.088 17.4715 112.088 17.427 112.088 17.3811C112.088 17.1578 112.088 16.9345 112.088 16.7112C112.088 14.8609 112.089 13.0106 112.091 11.1603Z" fill="white"/>
<path d="M103.802 11.1603C105.089 11.1603 106.376 11.1603 107.702 11.1603C107.702 17.507 107.702 23.8537 107.702 30.3928C106.415 30.3928 105.128 30.3928 103.802 30.3928C103.802 24.0461 103.802 17.6993 103.802 11.1603Z" fill="white"/>
<path d="M131.811 11.1603C133.08 11.1603 134.349 11.1603 135.657 11.1603C135.657 17.507 135.657 23.8537 135.657 30.3928C134.388 30.3928 133.118 30.3928 131.811 30.3928C131.811 24.0461 131.811 17.6993 131.811 11.1603Z" fill="white"/>
<path d="M35.052 23.1332C35.0069 23.358 34.9143 23.4488 34.7472 23.6072C34.5853 23.7644 34.4265 23.9198 34.28 24.0914C34.0645 24.343 33.8373 24.5833 33.6108 24.8248C33.4109 25.0381 33.2132 25.253 33.017 25.4696C32.7739 25.736 32.521 25.9908 32.2647 26.2446C32.0838 26.4244 31.9119 26.608 31.7466 26.8024C31.5929 26.9782 31.4329 27.1479 31.2732 27.3183C31.033 27.5748 30.7932 27.8316 30.5554 28.0903C30.5077 28.1419 30.46 28.1935 30.4108 28.2467C30.3024 28.3682 30.2037 28.4926 30.105 28.6219C30.057 28.67 30.0089 28.718 29.9594 28.7675C29.6822 28.7566 29.4549 28.6384 29.2111 28.517C28.7761 28.3057 28.3378 28.1028 27.8972 27.9037C27.1173 27.5513 26.3401 27.1928 25.5639 26.8321C24.9036 26.5254 24.2417 26.2221 23.5782 25.9223C22.8731 25.6035 22.1733 25.2736 21.4746 24.941C21.4345 24.922 21.3944 24.9029 21.3531 24.8833C21.278 24.8476 21.203 24.8118 21.128 24.776C20.9849 24.7079 20.8458 24.6461 20.6953 24.596C20.7258 24.394 20.8038 24.3086 20.9524 24.1723C20.9933 24.1344 21.0342 24.0964 21.0763 24.0574C21.1193 24.0183 21.1623 23.9793 21.2066 23.9391C21.2708 23.8799 21.2708 23.8799 21.3362 23.8195C21.4155 23.7464 21.4949 23.6735 21.5745 23.6009C21.644 23.5368 21.712 23.471 21.7788 23.4041C22.1554 23.3357 22.5362 23.3369 22.918 23.3297C23.023 23.3274 23.023 23.3274 23.1302 23.3251C23.3221 23.321 23.514 23.3172 23.7059 23.3134C23.91 23.3093 24.1141 23.305 24.3182 23.3007C24.7076 23.2925 25.097 23.2845 25.4864 23.2767C25.9182 23.268 26.3501 23.259 26.782 23.2499C27.5734 23.2334 28.3648 23.2172 29.1562 23.2014C29.2353 23.1998 29.3143 23.1982 29.3933 23.1966C29.4319 23.1958 29.4704 23.1951 29.5101 23.1943C29.8338 23.1878 30.1574 23.1811 30.4811 23.1744C30.7361 23.1692 30.9911 23.1641 31.2461 23.159C31.3602 23.1567 31.4743 23.1543 31.5884 23.152C32.7429 23.1279 33.8973 23.1275 35.052 23.1332Z" fill="#A1C75C"/>
<path d="M56.0757 36.0953C56.326 36.3207 56.5038 36.602 56.6681 36.8939C56.6898 36.8631 56.7115 36.8323 56.7339 36.8006C57.1811 36.1931 57.7176 35.8345 58.4663 35.7192C59.1882 35.6379 59.93 35.7295 60.5146 36.1896C60.9102 36.5372 61.0772 36.9786 61.1647 37.4899C61.1694 37.5953 61.1713 37.7008 61.1712 37.8063C61.1713 37.9012 61.1713 37.9012 61.1714 37.998C61.1712 38.067 61.171 38.1359 61.1708 38.2069C61.1708 38.2806 61.1708 38.3543 61.1709 38.428C61.1709 38.6277 61.1706 38.8273 61.1702 39.027C61.1698 39.2358 61.1698 39.4446 61.1697 39.6535C61.1696 40.0487 61.1691 40.4439 61.1686 40.8392C61.168 41.2892 61.1677 41.7393 61.1674 42.1893C61.1668 43.1149 61.1659 44.0406 61.1647 44.9662C60.7356 44.9662 60.3065 44.9662 59.8645 44.9662C59.8631 44.782 59.8617 44.5978 59.8603 44.408C59.8558 43.7967 59.851 43.1854 59.8461 42.5741C59.8431 42.2038 59.8402 41.8335 59.8375 41.4632C59.8349 41.1052 59.8321 40.7473 59.8291 40.3893C59.828 40.2533 59.827 40.1174 59.826 39.9814C59.9224 38.4715 59.9224 38.4715 59.4107 37.1343C59.0056 36.9125 58.5793 36.8762 58.1302 36.9892C57.6149 37.1677 57.3147 37.3926 57.0473 37.8691C56.8672 38.2978 56.8761 38.7459 56.8737 39.2033C56.8731 39.2657 56.8726 39.3281 56.872 39.3924C56.8703 39.5979 56.869 39.8034 56.8676 40.0088C56.8665 40.1516 56.8654 40.2944 56.8642 40.4372C56.8615 40.7741 56.8591 41.111 56.8567 41.4479C56.8541 41.8317 56.8511 42.2154 56.8481 42.5992C56.8419 43.3882 56.8362 44.1772 56.8306 44.9662C56.4015 44.9662 55.9725 44.9662 55.5304 44.9662C55.5288 44.6627 55.5288 44.6627 55.5271 44.3531C55.5235 43.6839 55.5193 43.0146 55.5148 42.3454C55.5121 41.9397 55.5096 41.534 55.5075 41.1283C55.5057 40.7746 55.5036 40.4208 55.501 40.067C55.4996 39.8799 55.4984 39.6927 55.4977 39.5056C55.4969 39.2962 55.4952 39.0867 55.4935 38.8773C55.4934 38.8159 55.4932 38.7546 55.4931 38.6913C55.4878 38.1835 55.4554 37.6467 55.1511 37.219C54.7691 36.9086 54.3823 36.9103 53.9051 36.9481C53.4022 37.0562 53.0623 37.3084 52.7471 37.7066C52.5337 38.1006 52.5343 38.4684 52.5334 38.9081C52.5329 38.9736 52.5323 39.0392 52.5318 39.1068C52.5304 39.2856 52.5295 39.4645 52.5288 39.6433C52.5279 39.8306 52.5265 40.0178 52.5251 40.2051C52.5225 40.5593 52.5206 40.9135 52.5188 41.2677C52.5167 41.6711 52.514 42.0745 52.5113 42.4779C52.5057 43.3073 52.5009 44.1367 52.4965 44.9662C52.0674 44.9662 51.6384 44.9662 51.1963 44.9662C51.1963 41.9805 51.1963 38.9949 51.1963 35.9188C51.6075 35.9188 52.0187 35.9188 52.4423 35.9188C52.4692 36.3478 52.4692 36.3478 52.4965 36.7856C52.5501 36.7208 52.6038 36.656 52.659 36.5892C53.4734 35.6636 55.0324 35.3257 56.0757 36.0953Z" fill="white"/>
<path d="M32.56 8.01807C32.6424 9.06504 32.7243 10.1121 32.8055 11.1591C32.8234 11.39 32.8415 11.6209 32.8596 11.8518C32.8797 12.1068 32.8994 12.3617 32.9187 12.6166C32.9255 12.7049 32.9323 12.7932 32.9394 12.8815C32.9871 13.4827 33.001 14.0786 32.9934 14.6817C31.5665 15.2826 30.1262 15.8503 28.6873 16.4216C28.1044 16.6531 27.5216 16.8847 26.9388 17.1165C26.8772 17.1409 26.8157 17.1654 26.7523 17.1906C25.3145 17.7522 25.3145 17.7522 23.8933 18.3533C23.7293 18.4199 23.7293 18.4199 23.5667 18.4199C23.4955 18.149 23.4313 17.8866 23.4042 17.6072C23.3963 17.5507 23.3883 17.4941 23.3801 17.4358C23.3547 17.1367 23.3457 16.9324 23.5219 16.6805C23.6694 16.5242 23.8337 16.3883 24.0002 16.2528C24.3255 15.9785 24.6286 15.6857 24.9284 15.384C24.9759 15.3365 25.0234 15.2889 25.0722 15.24C25.1746 15.1374 25.2769 15.0348 25.3792 14.9321C25.5412 14.7693 25.7034 14.6067 25.8657 14.4442C26.2102 14.0992 26.5544 13.7539 26.8986 13.4086C27.2703 13.0357 27.6421 12.6628 28.0141 12.2902C28.175 12.129 28.3358 11.9676 28.4965 11.8062C28.6205 11.6817 28.7446 11.5575 28.8687 11.4332C28.9126 11.389 28.9564 11.3449 29.0016 11.2994C29.2282 11.0728 29.4593 10.856 29.7022 10.6469C29.8231 10.5416 29.937 10.4305 30.0499 10.3167C30.0944 10.2721 30.1389 10.2274 30.1847 10.1814C30.2312 10.1344 30.2777 10.0875 30.3256 10.0391C30.4007 9.96371 30.4758 9.88834 30.5508 9.81298C30.6812 9.68206 30.8113 9.55096 30.9415 9.41987C31.0974 9.26281 31.2534 9.10578 31.4096 8.94897C31.5064 8.85172 31.6032 8.75434 31.6998 8.65683C32.3359 8.01807 32.3359 8.01807 32.56 8.01807Z" fill="#A1C75C"/>
<path d="M35.1603 15.4402C35.1353 15.8538 35.0491 16.2313 34.9341 16.6285C34.9167 16.69 34.8992 16.7515 34.8813 16.8149C34.8246 17.0148 34.7673 17.2145 34.71 17.4142C34.6707 17.5523 34.6315 17.6904 34.5923 17.8285C34.5328 18.0382 34.4732 18.248 34.4135 18.4576C34.2275 19.1102 34.0451 19.7638 33.8635 20.4176C33.8111 20.606 33.7587 20.7943 33.7062 20.9827C33.6951 21.023 33.6839 21.0633 33.6723 21.1048C33.6295 21.2585 33.5855 21.4107 33.535 21.5621C32.5889 21.6199 31.642 21.6368 30.6944 21.6546C30.467 21.6589 30.2397 21.6633 30.0123 21.6678C29.6308 21.6752 29.2492 21.6826 28.8677 21.6898C28.4298 21.6981 27.9919 21.7066 27.554 21.7152C27.1287 21.7235 26.7034 21.7317 26.2781 21.7399C26.099 21.7433 25.9198 21.7468 25.7407 21.7503C24.8173 21.7684 23.8943 21.7848 22.9707 21.7788C23.0472 21.2268 23.1739 20.5064 23.6129 20.119C23.8738 19.961 24.1656 19.8777 24.4549 19.7862C24.8169 19.6636 25.1672 19.511 25.5198 19.3636C25.7498 19.2679 25.9806 19.1739 26.2113 19.0797C26.7212 18.871 27.2299 18.6594 27.7382 18.447C28.4087 18.1668 29.0803 17.8893 29.7529 17.614C30.7226 17.2169 31.6908 16.8161 32.6586 16.4142C32.9467 16.2946 33.2349 16.1752 33.5232 16.056C33.5599 16.0408 33.5966 16.0257 33.6344 16.01C33.8028 15.9404 33.9712 15.8708 34.1397 15.8013C34.1978 15.7772 34.256 15.7532 34.3159 15.7284C34.3689 15.7066 34.4218 15.6847 34.4764 15.6622C34.5984 15.6112 34.7192 15.5581 34.8399 15.5041C34.9978 15.4402 34.9978 15.4402 35.1603 15.4402Z" fill="#A1C75C"/>
<path d="M20.8582 0C21.0262 0.033034 21.1379 0.0867581 21.2766 0.186442C21.3144 0.213386 21.3522 0.240329 21.3911 0.26809C21.4309 0.296945 21.4707 0.325801 21.5117 0.35553C21.5528 0.38498 21.594 0.414429 21.6363 0.44477C21.7565 0.530905 21.8762 0.617491 21.9959 0.704289C22.0533 0.745911 22.1107 0.787534 22.1698 0.830418C22.2657 0.900202 22.3615 0.970102 22.4572 1.04014C22.5947 1.13977 22.7335 1.23716 22.8729 1.33409C23.0296 1.44326 23.1845 1.55391 23.3367 1.6693C23.5307 1.81611 23.7279 1.95813 23.9259 2.09932C23.958 2.12218 23.99 2.14504 24.023 2.16859C24.1949 2.29104 24.367 2.41322 24.5392 2.53527C24.591 2.57207 24.591 2.57207 24.6438 2.6096C24.7102 2.65678 24.7767 2.70387 24.8432 2.75086C24.9681 2.83961 25.0837 2.92534 25.1923 3.03386C25.1711 3.24025 25.0973 3.4175 25.0158 3.60694C24.991 3.66493 24.9662 3.72291 24.9407 3.78266C24.9142 3.84395 24.8877 3.90525 24.8604 3.9684C24.8059 4.09585 24.7513 4.22332 24.6969 4.3508C24.657 4.44392 24.657 4.44392 24.6163 4.53891C24.5205 4.76432 24.4277 4.99089 24.3356 5.21783C24.2341 5.46673 24.1284 5.71273 24.0139 5.95598C23.8548 6.29536 23.7089 6.63982 23.5636 6.98533C23.3432 7.50925 23.1197 8.03175 22.8932 8.55305C22.6639 9.08074 22.4357 9.60881 22.2092 10.1377C22.183 10.1989 22.1568 10.2601 22.1298 10.3232C22.0037 10.6176 21.8778 10.9121 21.752 11.2067C21.692 11.347 21.632 11.4874 21.572 11.6277C21.5296 11.7268 21.4873 11.826 21.445 11.9251C21.4194 11.985 21.3938 12.0449 21.3674 12.1067C21.3448 12.1594 21.3223 12.2122 21.2991 12.2665C21.2457 12.3874 21.1894 12.5055 21.1291 12.623C20.9158 12.5489 20.7643 12.4516 20.5907 12.3081C20.5246 12.254 20.5246 12.254 20.4572 12.1987C20.3875 12.1406 20.3875 12.1406 20.3164 12.0813C20.2604 12.0432 20.2044 12.0051 20.1467 11.9658C19.9979 11.8409 19.9922 11.8153 19.957 11.6082C19.9584 11.5297 19.9617 11.4512 19.9664 11.3728C19.9678 11.33 19.9691 11.2872 19.9705 11.2431C19.9755 11.107 19.9831 10.9712 19.9914 10.8352C19.9937 10.7927 19.996 10.7501 19.9984 10.7063C20.0159 10.3921 20.0401 10.0786 20.0651 9.76487C20.0731 9.66171 20.081 9.55854 20.0889 9.45538C20.1101 9.17847 20.1319 8.9016 20.1537 8.62474C20.1765 8.33381 20.199 8.04286 20.2215 7.75191C20.2593 7.26428 20.2973 6.77667 20.3356 6.28908C20.3798 5.72574 20.4236 5.16237 20.4672 4.59899C20.5138 3.99752 20.5606 3.39607 20.6075 2.79462C20.6209 2.62177 20.6344 2.44891 20.6478 2.27606C20.6689 2.00479 20.6901 1.73353 20.7114 1.46228C20.7192 1.36283 20.727 1.26337 20.7347 1.16391C20.7452 1.02812 20.7559 0.892356 20.7666 0.75659C20.7696 0.717308 20.7727 0.678025 20.7757 0.637552C20.793 0.422633 20.8195 0.212104 20.8582 0Z" fill="#A1C75C"/>
<path d="M151.585 36.1896C151.737 36.3375 151.869 36.4873 151.964 36.6772C151.982 36.4269 152 36.1766 152.019 35.9188C152.43 35.9188 152.841 35.9188 153.265 35.9188C153.265 39.9056 153.265 43.8924 153.265 48C152.835 48 152.406 48 151.964 48C151.946 46.7485 151.929 45.4971 151.91 44.2077C151.785 44.3507 151.66 44.4937 151.531 44.6411C151.014 45.1005 150.454 45.1785 149.786 45.1513C149.145 45.1065 148.686 44.8487 148.246 44.3939C147.389 43.3651 147.347 41.7831 147.346 40.5102C147.346 40.4725 147.346 40.4349 147.346 40.3961C147.348 39.0537 147.434 37.4188 148.408 36.3784C149.307 35.5684 150.607 35.4509 151.585 36.1896ZM149.342 37.3203C148.829 38.0035 148.761 38.9571 148.757 39.7849C148.757 39.8322 148.756 39.8794 148.756 39.9281C148.755 40.0278 148.755 40.1274 148.755 40.2271C148.754 40.3757 148.753 40.5242 148.751 40.6728C148.745 41.6283 148.75 42.9021 149.418 43.6659C149.805 43.9528 150.129 44.0361 150.61 43.991C150.973 43.896 151.256 43.6968 151.477 43.395C151.903 42.6624 152.025 41.8293 152.03 40.9931C152.03 40.9217 152.03 40.9217 152.03 40.8489C152.031 40.7485 152.031 40.648 152.032 40.5476C152.032 40.3973 152.034 40.2471 152.035 40.0969C152.041 39.1698 152.017 38.0668 151.407 37.3123C151.11 37.0131 150.796 36.8875 150.38 36.8804C149.942 36.8868 149.641 36.9938 149.342 37.3203Z" fill="white"/>
<path d="M27.6841 3.35889C27.7378 3.35889 27.7914 3.35889 27.8466 3.35889C28.2524 4.24552 28.6214 5.14773 28.9947 6.0483C29.1537 6.43166 29.3137 6.8146 29.4736 7.19758C29.4935 7.24534 29.5134 7.2931 29.5339 7.34231C29.5509 7.38295 29.5678 7.42359 29.5853 7.46546C29.6015 7.50478 29.6177 7.54411 29.6345 7.58462C29.6555 7.62873 29.6766 7.67283 29.6983 7.71828C29.7546 7.8919 29.7566 7.9557 29.6886 8.12638C29.5763 8.26821 29.4488 8.39263 29.3193 8.51873C29.282 8.55593 29.2446 8.59313 29.2061 8.63145C29.0864 8.75029 28.966 8.86835 28.8455 8.98643C28.7659 9.06546 28.6863 9.14453 28.6067 9.22366C28.5294 9.30024 28.452 9.37678 28.3746 9.45327C28.3391 9.48839 28.3036 9.5235 28.267 9.55968C28.0567 9.7658 27.8403 9.96237 27.6176 10.1551C27.5048 10.254 27.3981 10.3574 27.293 10.4644C27.2548 10.503 27.2166 10.5417 27.1773 10.5814C27.1389 10.6205 27.1006 10.6595 27.0611 10.6997C26.8074 10.9581 26.5508 11.2063 26.2763 11.4424C26.0775 11.6192 25.893 11.8103 25.7067 12C25.4524 12.2589 25.1953 12.5077 24.9202 12.7444C24.7314 12.912 24.5561 13.0929 24.3794 13.2731C24.1327 13.5246 23.8821 13.7648 23.6151 13.9946C23.4295 14.1597 23.2605 14.3414 23.0914 14.5233C23.0191 14.5982 22.941 14.6675 22.8624 14.7359C22.7909 14.7359 22.7194 14.7359 22.6457 14.7359C22.5512 14.6137 22.4732 14.4988 22.3952 14.3668C22.3738 14.332 22.3524 14.2972 22.3304 14.2613C22.2725 14.1669 22.2153 14.0722 22.1582 13.9774C22.1224 13.9238 22.0866 13.8701 22.0498 13.8149C22.0648 13.5352 22.1389 13.3386 22.276 13.0968C22.2934 13.0657 22.3108 13.0346 22.3288 13.0026C22.3854 12.9017 22.4427 12.8013 22.5001 12.7009C22.5398 12.6306 22.5793 12.5602 22.6188 12.4898C22.6983 12.3482 22.778 12.2067 22.8579 12.0653C23.015 11.7867 23.1673 11.5057 23.3196 11.2246C23.5142 10.8666 23.711 10.51 23.9116 10.1553C24.1281 9.77228 24.341 9.3873 24.5543 9.0025C24.7915 8.57472 25.0312 8.1485 25.2733 7.72345C25.5531 7.23147 25.8213 6.73377 26.0871 6.23414C26.3354 5.76766 26.5908 5.30608 26.855 4.84845C27.1391 4.35618 27.412 3.85787 27.6841 3.35889Z" fill="#A1C75C"/>
<path d="M14.4109 0.48761C14.7761 0.517573 15.0907 0.645923 15.4301 0.778806C15.5316 0.818012 15.6332 0.857214 15.7348 0.896353C15.8109 0.925699 15.887 0.955096 15.9631 0.984537C16.3253 1.12452 16.6886 1.26168 17.0519 1.39866C17.2356 1.468 17.4193 1.53737 17.6029 1.60674C17.725 1.65279 17.847 1.69879 17.9691 1.74471C18.1429 1.81015 18.3167 1.87589 18.4904 1.94169C18.5424 1.9612 18.5944 1.9807 18.648 2.0008C18.9431 2.11291 19.2236 2.23763 19.5034 2.38377C19.5121 2.80792 19.478 3.22464 19.4396 3.64678C19.4328 3.72416 19.4259 3.80154 19.4191 3.87893C19.4006 4.08781 19.3818 4.29666 19.363 4.50551C19.3433 4.72469 19.3238 4.94389 19.3043 5.16309C19.2715 5.53097 19.2385 5.89884 19.2055 6.2667C19.1673 6.6914 19.1294 7.11612 19.0916 7.54084C19.0512 7.99407 19.0107 8.44728 18.9701 8.90048C18.9585 9.03066 18.9469 9.16084 18.9353 9.29103C18.917 9.49585 18.8986 9.70067 18.8802 9.90549C18.8735 9.98045 18.8667 10.0554 18.8601 10.1304C18.798 10.8277 18.798 10.8277 18.745 11.1603C18.5773 11.1723 18.4248 11.1709 18.2574 11.1603C18.1894 11.1562 18.1215 11.1521 18.0515 11.1479C17.8138 11.1197 17.5927 11.0776 17.3905 10.9436C17.1643 10.6562 17.1082 10.2582 17.0249 9.91086C16.9955 9.80089 16.9656 9.69103 16.9354 9.58128C16.8689 9.33859 16.8042 9.09551 16.7403 8.85213C16.6265 8.42457 16.5006 8.0011 16.3724 7.57769C16.3555 7.5216 16.3555 7.5216 16.3382 7.46437C16.2919 7.31139 16.2456 7.15842 16.1992 7.00547C16.0699 6.579 15.9427 6.15191 15.8158 5.7247C15.8045 5.68656 15.7932 5.64842 15.7815 5.60913C15.5494 4.82727 15.3209 4.04438 15.0948 3.26075C15.0786 3.20466 15.0624 3.14858 15.0458 3.0908C14.9561 2.77999 14.8672 2.469 14.7792 2.1577C14.7493 2.05182 14.7192 1.94597 14.689 1.84016C14.6426 1.67703 14.5967 1.51374 14.551 1.35041C14.5368 1.30111 14.5227 1.25182 14.5082 1.20103C14.4405 0.956821 14.3935 0.743762 14.4109 0.48761Z" fill="#A1C75C"/>
<path d="M13.6524 2.54626C13.8139 2.83625 13.9013 3.13702 13.9923 3.45519C14.0095 3.51407 14.0266 3.57295 14.0442 3.63361C14.0816 3.76212 14.1188 3.89067 14.1559 4.01926C14.2153 4.22513 14.2751 4.4309 14.335 4.63663C14.3452 4.67191 14.3555 4.70719 14.3661 4.74353C14.3873 4.81621 14.4084 4.88888 14.4296 4.96155C14.4623 5.07405 14.495 5.18656 14.5277 5.29907C14.7736 6.14466 15.0232 6.98913 15.2732 7.83352C15.3356 8.04451 15.398 8.25553 15.4604 8.46655C15.5077 8.62667 15.5551 8.78679 15.6025 8.9469C15.6244 9.02089 15.6462 9.09488 15.6681 9.16888C15.6984 9.27154 15.7288 9.37419 15.7592 9.47684C15.7781 9.54071 15.7969 9.60459 15.8162 9.67039C15.8554 9.79964 15.8962 9.92838 15.9385 10.0566C15.9589 10.1189 15.9793 10.1811 16.0003 10.2452C16.0282 10.3277 16.0282 10.3277 16.0566 10.4119C16.0927 10.5748 16.0813 10.6761 16.0362 10.8352C15.8406 10.8503 15.6451 10.864 15.4491 10.8746C15.3071 10.8825 15.1731 10.8968 15.0318 10.9177C14.8404 10.9383 14.7049 10.9424 14.5193 10.8894C14.3226 10.7074 14.1845 10.505 14.0408 10.2803C13.9451 10.1362 13.8348 10.0058 13.7236 9.87357C13.5508 9.66405 13.3819 9.45233 13.2159 9.23743C13.0834 9.06627 12.9498 8.89594 12.8161 8.72572C12.7904 8.69303 12.7648 8.66035 12.7383 8.62668C12.5534 8.39163 12.3669 8.15797 12.1797 7.92472C12.0547 7.76799 11.9318 7.60971 11.809 7.45131C11.4543 6.99473 11.0964 6.54132 10.7291 6.09479C10.5979 5.93396 10.4704 5.77055 10.3435 5.60636C9.99708 5.15858 9.64603 4.71495 9.28789 4.27651C9.02345 3.95273 8.76549 3.62486 8.51228 3.29224C8.43542 3.19188 8.35592 3.0935 8.27399 2.99723C8.18066 2.87132 8.18066 2.87132 8.18066 2.70879C8.59395 2.65569 9.00469 2.63831 9.421 2.62562C9.49441 2.62328 9.56781 2.62092 9.64122 2.61856C9.79517 2.61366 9.94912 2.60889 10.1031 2.60423C10.2954 2.59839 10.4878 2.59217 10.6801 2.58584C11.6713 2.55344 12.6607 2.53904 13.6524 2.54626Z" fill="#A1C75C"/>
<path d="M77.0284 36.1693C77.5236 36.6391 77.6694 37.2924 77.6938 37.9529C77.6959 38.1049 77.6964 38.2569 77.6964 38.4089C77.6965 38.4662 77.6967 38.5236 77.6969 38.5826C77.6973 38.7062 77.6976 38.8298 77.6978 38.9535C77.6982 39.1491 77.699 39.3446 77.7 39.5402C77.7029 40.096 77.7055 40.6518 77.7063 41.2076C77.7069 41.5482 77.7085 41.8888 77.7107 42.2294C77.7114 42.3591 77.7117 42.4888 77.7116 42.6185C77.7114 42.7994 77.7126 42.9803 77.7141 43.1612C77.7138 43.2148 77.7134 43.2685 77.713 43.3238C77.7165 43.6057 77.7165 43.6057 77.8259 43.86C77.9972 43.9699 77.9972 43.9699 78.393 43.991C78.393 44.3128 78.393 44.6346 78.393 44.9662C77.8983 45.0746 77.4513 45.1578 76.9844 44.912C76.6791 44.6609 76.5347 44.3699 76.4426 43.991C76.4196 44.0263 76.3967 44.0617 76.373 44.0981C76.0062 44.6447 75.6119 44.9937 74.9585 45.1621C74.3456 45.2522 73.7307 45.2185 73.2054 44.8661C72.5971 44.3666 72.4159 43.7109 72.3252 42.9616C72.2551 42.1823 72.3992 41.3715 72.9009 40.7607C73.537 40.0803 74.5753 39.7965 75.4347 39.5098C75.9395 39.3417 75.9395 39.3417 76.2801 38.9526C76.2964 38.7058 76.2952 38.4584 76.297 38.2111C76.2986 38.1424 76.3002 38.0737 76.3018 38.0029C76.3058 37.4902 76.3058 37.4902 76.0634 37.0565C75.6843 36.7684 75.1593 36.799 74.709 36.8398C74.4366 36.89 74.2285 36.9979 74.0604 37.2266C73.8635 37.5829 73.8326 37.9555 73.788 38.3567C73.3947 38.3567 73.0014 38.3567 72.5961 38.3567C72.5688 37.6017 72.6752 36.8888 73.1783 36.2946C74.0866 35.4184 76.0576 35.3774 77.0284 36.1693ZM76.1027 40.3443C75.7322 40.5689 75.3362 40.7104 74.9312 40.8602C74.4757 41.0346 74.0614 41.2408 73.788 41.6614C73.542 42.2571 73.5748 42.9047 73.788 43.5034C73.9257 43.7525 74.1181 43.8939 74.3839 43.991C74.8252 44.1005 75.1951 44.0001 75.5893 43.7878C76.0716 43.3933 76.2844 42.9175 76.3884 42.3115C76.4014 42.1413 76.4012 41.9724 76.399 41.8017C76.3988 41.7324 76.3988 41.7324 76.3986 41.6617C76.398 41.516 76.3966 41.3703 76.3952 41.2246C76.3947 41.1251 76.3942 41.0255 76.3937 40.9259C76.3925 40.6835 76.3907 40.4411 76.3884 40.1987C76.2838 40.1987 76.1877 40.2901 76.1027 40.3443Z" fill="white"/>
<path d="M117.745 35.6411C118.409 35.6239 119.114 35.7165 119.637 36.1524C119.705 36.2176 119.772 36.2842 119.837 36.3521C119.863 36.378 119.889 36.4038 119.916 36.4304C120.478 37.083 120.356 38.2095 120.354 39.0025C120.354 39.1368 120.355 39.2711 120.356 39.4054C120.358 39.7562 120.358 40.107 120.358 40.4578C120.359 41.0215 120.361 41.5852 120.363 42.1489C120.364 42.3454 120.364 42.5419 120.364 42.7385C120.364 42.8583 120.365 42.9782 120.365 43.0981C120.365 43.1527 120.365 43.2072 120.364 43.2635C120.365 43.3136 120.365 43.3637 120.365 43.4153C120.365 43.4587 120.365 43.5022 120.365 43.5469C120.381 43.6819 120.414 43.7685 120.487 43.8826C120.617 43.9322 120.617 43.9322 120.765 43.9503C120.896 43.9704 120.896 43.9704 121.029 43.991C121.029 44.3128 121.029 44.6346 121.029 44.9661C120.531 45.0752 120.092 45.1529 119.62 44.9119C119.322 44.6744 119.199 44.3428 119.079 43.991C119.061 44.0211 119.043 44.0513 119.025 44.0824C118.671 44.649 118.248 45.0004 117.595 45.1602C116.963 45.261 116.353 45.1889 115.818 44.8275C115.343 44.4501 115.134 43.9211 115.015 43.3408C114.994 43.1156 114.993 42.8931 114.995 42.667C114.994 42.6106 114.994 42.5541 114.993 42.4959C114.996 41.8162 115.145 41.2173 115.59 40.6919C116.147 40.1467 116.99 39.9027 117.708 39.6471C117.902 39.578 118.094 39.5069 118.286 39.4334C118.349 39.4098 118.412 39.3862 118.477 39.3619C118.685 39.2579 118.873 39.1347 118.95 38.9055C118.989 38.6846 118.983 38.4619 118.984 38.2381C118.985 38.1889 118.986 38.1397 118.987 38.089C118.989 37.7041 118.956 37.3255 118.686 37.0327C118.246 36.7831 117.677 36.7551 117.192 36.8789C116.946 36.9796 116.779 37.0943 116.641 37.3273C116.554 37.5583 116.506 37.7809 116.471 38.0248C116.456 38.1343 116.44 38.2438 116.424 38.3566C116.031 38.3566 115.637 38.3566 115.232 38.3566C115.232 37.5702 115.351 36.8486 115.882 36.2438C116.446 35.7959 117.044 35.6777 117.745 35.6411ZM118.824 40.3157C118.472 40.5712 118.039 40.69 117.633 40.8383C117.128 41.0286 116.687 41.22 116.424 41.7156C116.249 42.2192 116.199 42.9156 116.407 43.4153C116.577 43.7134 116.785 43.9132 117.112 44.0212C117.475 44.0908 117.846 44.027 118.166 43.8437C118.661 43.4992 118.916 43.007 119.024 42.4198C119.038 42.2435 119.037 42.0684 119.035 41.8916C119.035 41.8186 119.035 41.8186 119.035 41.7441C119.034 41.5901 119.033 41.4361 119.031 41.2822C119.031 41.1771 119.03 41.0721 119.03 40.967C119.029 40.7109 119.027 40.4548 119.024 40.1986C118.946 40.193 118.946 40.193 118.824 40.3157Z" fill="white"/>
<path d="M138.109 36.1355C138.492 36.4963 138.716 37.0494 138.755 37.5709C138.759 37.7259 138.76 37.8807 138.76 38.0359C138.76 38.0945 138.76 38.1531 138.761 38.2136C138.761 38.3402 138.761 38.4669 138.762 38.5936C138.762 38.7943 138.763 38.9949 138.764 39.1955C138.766 39.6936 138.768 40.1918 138.769 40.6899C138.77 41.1113 138.772 41.5327 138.774 41.9541C138.775 42.087 138.775 42.2199 138.775 42.3528C138.775 42.5386 138.776 42.7244 138.778 42.9102C138.777 42.9649 138.777 43.0196 138.777 43.076C138.78 43.3852 138.808 43.6112 138.962 43.8826C139.143 43.9646 139.303 43.9675 139.504 43.991C139.504 44.3128 139.504 44.6346 139.504 44.9662C138.926 45.0928 138.466 45.1346 137.943 44.8206C137.716 44.5814 137.609 44.3127 137.553 43.991C137.524 44.0342 137.494 44.0773 137.464 44.1218C137.036 44.7231 136.611 45.0359 135.874 45.1829C135.256 45.2426 134.71 45.1621 134.2 44.7954C133.729 44.3811 133.515 43.7883 133.436 43.1783C133.381 42.2871 133.432 41.4685 134.006 40.7447C134.582 40.1099 135.474 39.883 136.253 39.6027C136.869 39.4185 136.869 39.4185 137.343 39.0201C137.443 38.7634 137.408 38.4728 137.408 38.2009C137.408 38.1374 137.409 38.074 137.41 38.0086C137.414 37.5627 137.414 37.5627 137.228 37.1648C136.875 36.8211 136.487 36.8198 136.017 36.8254C135.772 36.8432 135.606 36.8966 135.386 37.0023C135.333 37.0202 135.279 37.038 135.224 37.0565C134.981 37.4592 134.941 37.8923 134.899 38.3567C134.487 38.3567 134.076 38.3567 133.653 38.3567C133.693 37.5391 133.773 36.7803 134.404 36.1964C135.346 35.4353 137.152 35.3934 138.109 36.1355ZM137.213 40.3441C136.896 40.5364 136.566 40.6674 136.219 40.798C135.379 41.099 135.379 41.099 134.844 41.7698C134.646 42.3085 134.657 42.958 134.881 43.4865C135.036 43.7561 135.23 43.8926 135.511 44.0147C135.991 44.0878 136.391 43.9904 136.795 43.7201C137.266 43.3041 137.443 42.7031 137.499 42.0948C137.505 41.9424 137.505 41.7903 137.504 41.6377C137.504 41.5962 137.504 41.5548 137.504 41.512C137.504 41.3812 137.503 41.2505 137.502 41.1197C137.502 41.0303 137.502 40.9409 137.502 40.8515C137.501 40.6339 137.5 40.4163 137.499 40.1987C137.394 40.1987 137.298 40.2899 137.213 40.3441Z" fill="white"/>
<path d="M172.551 36.2438C172.587 36.2724 172.624 36.3011 172.662 36.3306C173.498 37.0663 173.726 38.387 173.797 39.4402C173.869 41.0274 173.96 43.0449 172.862 44.3296C172.415 44.8015 171.831 45.1488 171.17 45.1916C170.206 45.2071 169.331 45.1918 168.582 44.4989C167.691 43.5334 167.552 42.1049 167.512 40.8488C167.51 40.7898 167.508 40.7309 167.506 40.6702C167.478 39.2403 167.592 37.6035 168.545 36.4584C169.549 35.4421 171.441 35.3418 172.551 36.2438ZM169.591 37.1889C168.85 38.0297 168.9 39.3729 168.904 40.4255C168.904 40.4744 168.904 40.5232 168.904 40.5735C168.878 42.2764 168.878 42.2764 169.628 43.7425C169.978 44.0277 170.402 44.13 170.847 44.0856C171.272 44.0141 171.606 43.8593 171.878 43.5148C172.417 42.67 172.415 41.5736 172.409 40.6077C172.409 40.4426 172.409 40.2776 172.41 40.1125C172.414 38.5412 172.414 38.5412 171.717 37.1845C171.134 36.6906 170.167 36.6618 169.591 37.1889Z" fill="white"/>
<path d="M48.9696 36.3363C49.9955 37.4025 49.8418 39.2263 49.8418 40.5237C48.4473 40.5237 47.0528 40.5237 45.616 40.5237C45.6036 42.1655 45.6036 42.1655 46.2424 43.6693C46.3078 43.7213 46.3078 43.7213 46.3745 43.7743C46.408 43.8045 46.4415 43.8346 46.4761 43.8657C46.7519 44.0361 47.0844 44.0996 47.4038 44.0452C47.7996 43.9132 48.0787 43.714 48.2706 43.3409C48.4632 42.8653 48.5343 42.3844 48.5957 41.8781C49.0069 41.8781 49.4181 41.8781 49.8418 41.8781C49.8418 42.8848 49.6594 43.8274 48.9396 44.5711C48.4228 45.0514 47.799 45.2023 47.1126 45.1998C47.0649 45.2007 47.0171 45.2015 46.9679 45.2024C46.3478 45.2029 45.804 45.0033 45.3365 44.5924C44.2543 43.4706 44.2391 41.6775 44.2534 40.2154C44.2789 38.8458 44.3954 37.2907 45.3879 36.2506C46.3711 35.3526 48.014 35.4788 48.9696 36.3363ZM46.1476 37.1648C45.6271 37.83 45.616 38.63 45.616 39.4402C46.5814 39.4402 47.5469 39.4402 48.5415 39.4402C48.5633 38.1529 48.5633 38.1529 47.9581 37.0689C47.6354 36.7789 47.374 36.7663 46.9444 36.7708C46.6017 36.7974 46.3845 36.9208 46.1476 37.1648Z" fill="white"/>
<path d="M8.12613 5.30928C8.25056 5.43774 8.25056 5.43774 8.38346 5.60387C8.40725 5.63327 8.43103 5.66268 8.45553 5.69297C8.52685 5.78137 8.59745 5.8703 8.66789 5.9594C8.73898 6.04857 8.81009 6.13774 8.88121 6.22689C8.91584 6.27047 8.95048 6.31405 8.98617 6.35895C9.12035 6.5247 9.25775 6.68745 9.39588 6.84992C9.71976 7.23093 10.0362 7.61767 10.3507 8.00645C10.6551 8.38241 10.9614 8.75615 11.2749 9.12458C11.5114 9.40274 11.7425 9.68503 11.9726 9.96843C12.0324 10.0419 12.0921 10.1153 12.1519 10.1887C12.4974 10.6135 12.4974 10.6135 12.6009 10.7419C12.6681 10.8244 12.737 10.9055 12.8062 10.9863C12.8936 11.1061 12.8936 11.1061 12.8936 11.2687C12.7036 11.3616 12.5126 11.4525 12.3214 11.5429C12.2677 11.5692 12.214 11.5955 12.1588 11.6226C11.646 11.8628 11.646 11.8628 11.3225 11.7562C11.098 11.6608 10.8803 11.5539 10.6622 11.4447C10.5307 11.3801 10.3992 11.3155 10.2676 11.2511C10.2339 11.2345 10.2002 11.218 10.1655 11.2009C9.81113 11.0271 9.45304 10.8615 9.09452 10.6964C8.61633 10.4756 8.13995 10.2516 7.66563 10.0226C7.00395 9.70333 6.33779 9.39414 5.67101 9.08569C5.46399 8.98984 5.25715 8.89363 5.05036 8.79729C5.01534 8.78098 4.98032 8.76466 4.94424 8.74785C4.77034 8.6668 4.59652 8.58559 4.42282 8.50414C4.12167 8.36297 3.8203 8.22256 3.51693 8.08623C3.46836 8.06411 3.41979 8.04199 3.36976 8.0192C3.28175 7.97916 3.19348 7.93972 3.10488 7.90101C2.99019 7.84836 2.99019 7.84836 2.81687 7.74721C2.77895 7.63253 2.77895 7.63253 2.7627 7.5305C2.83898 7.49665 2.83898 7.49665 2.9168 7.46211C3.79828 7.07083 4.67965 6.67932 5.55954 6.28445C6.79224 5.73141 6.79224 5.73141 7.15908 5.57024C7.25796 5.52658 7.35652 5.48217 7.45506 5.43774C7.51338 5.41211 7.57169 5.38648 7.63177 5.36007C7.68079 5.33822 7.72982 5.31636 7.78033 5.29384C7.93076 5.24871 7.98493 5.24064 8.12613 5.30928Z" fill="#A1C75C"/>
<path d="M97.9502 35.9188C98.415 35.9188 98.8799 35.9188 99.3588 35.9188C99.5691 36.5737 99.7392 37.2375 99.9109 37.9034C99.943 38.0273 99.9751 38.1512 100.007 38.275C100.091 38.5995 100.175 38.924 100.259 39.2485C100.393 39.7682 100.528 40.2878 100.662 40.8074C100.709 40.9879 100.756 41.1684 100.802 41.3489C100.831 41.4605 100.86 41.5721 100.889 41.6837C100.902 41.7331 100.914 41.7825 100.928 41.8335C101.016 42.1742 101.107 42.5139 101.201 42.8533C101.317 42.6784 101.356 42.5433 101.41 42.3406C101.419 42.3051 101.429 42.2695 101.438 42.2329C101.47 42.1145 101.501 41.996 101.532 41.8775C101.554 41.7936 101.576 41.7098 101.599 41.6259C101.646 41.4473 101.693 41.2687 101.74 41.09C101.814 40.8117 101.887 40.5336 101.961 40.2555C101.986 40.1626 102.01 40.0698 102.035 39.9769C102.047 39.931 102.059 39.8852 102.072 39.8379C102.109 39.6987 102.146 39.5595 102.182 39.4203C102.374 38.6951 102.568 37.9704 102.764 37.2462C102.794 37.1358 102.824 37.0253 102.854 36.9149C102.894 36.7644 102.935 36.6141 102.976 36.4637C102.987 36.4203 102.999 36.3768 103.011 36.3321C103.091 36.0396 103.091 36.0396 103.151 35.9188C103.598 35.9188 104.045 35.9188 104.505 35.9188C104.215 36.965 103.915 38.0085 103.612 39.0515C103.507 39.4139 103.402 39.7764 103.297 40.1389C103.27 40.2319 103.243 40.3249 103.216 40.4179C103.033 41.0506 102.85 41.6836 102.668 42.3167C102.595 42.5692 102.522 42.8216 102.449 43.074C102.392 43.272 102.335 43.47 102.279 43.6681C101.276 47.1652 101.276 47.1652 100.508 47.665C99.7701 48.061 99.117 48.0523 98.3294 47.8375C98.3294 47.4442 98.3294 47.0509 98.3294 46.6456C98.4903 46.6814 98.6512 46.7171 98.817 46.754C99.1566 46.7902 99.4397 46.7716 99.738 46.5914C100.198 46.2149 100.437 45.5757 100.495 44.995C100.497 44.7424 100.423 44.5128 100.351 44.2727C100.334 44.2161 100.318 44.1595 100.301 44.1012C100.248 43.9141 100.192 43.7274 100.137 43.5407C100.099 43.4081 100.061 43.2754 100.022 43.1428C99.9312 42.8276 99.8393 42.5127 99.747 42.198C99.6351 41.8161 99.5243 41.4339 99.4135 41.0517C99.2754 40.5757 99.1371 40.0997 98.9984 39.6239C98.7534 38.7834 98.511 37.9422 98.2704 37.1005C98.2538 37.0427 98.2373 36.9849 98.2203 36.9254C98.1744 36.7652 98.1286 36.6049 98.0829 36.4447C98.0693 36.3972 98.0557 36.3497 98.0417 36.3008C97.9502 35.9792 97.9502 35.9792 97.9502 35.9188Z" fill="white"/>
<path d="M154.836 35.9188C155.283 35.9188 155.729 35.9188 156.19 35.9188C156.191 36.1345 156.192 36.3502 156.192 36.5725C156.195 37.2856 156.199 37.9988 156.203 38.7119C156.205 39.1442 156.207 39.5766 156.209 40.0089C156.21 40.3859 156.212 40.7628 156.214 41.1398C156.216 41.3393 156.217 41.5387 156.217 41.7382C156.217 41.9613 156.219 42.1843 156.221 42.4074C156.221 42.5058 156.221 42.5058 156.221 42.6062C156.226 43.1876 156.226 43.1876 156.478 43.6974C156.697 43.8958 156.908 43.9893 157.203 43.9927C157.726 43.9659 158.203 43.8376 158.574 43.4492C158.947 42.922 159.031 42.3379 159.031 41.7063C159.031 41.6433 159.032 41.5803 159.032 41.5154C159.034 41.3094 159.034 41.1033 159.035 40.8972C159.036 40.7536 159.037 40.6099 159.038 40.4662C159.04 40.1279 159.042 39.7897 159.043 39.4514C159.044 39.066 159.047 38.6805 159.049 38.295C159.054 37.503 159.058 36.7109 159.061 35.9188C159.49 35.9188 159.919 35.9188 160.362 35.9188C160.362 38.9044 160.362 41.89 160.362 44.9662C159.968 44.9662 159.575 44.9662 159.17 44.9662C159.152 44.6801 159.134 44.3941 159.115 44.0993C159.07 44.1642 159.024 44.229 158.977 44.2957C158.607 44.786 158.153 45.0749 157.544 45.1829C157.357 45.1987 157.171 45.2005 156.982 45.1998C156.935 45.2007 156.887 45.2015 156.838 45.2024C156.289 45.2028 155.795 45.0617 155.377 44.6953C154.823 44.063 154.827 43.2537 154.829 42.4566C154.829 42.3503 154.829 42.3503 154.829 42.2418C154.829 42.0489 154.83 41.8559 154.83 41.663C154.83 41.4608 154.83 41.2587 154.831 41.0565C154.831 40.6743 154.831 40.2921 154.832 39.9099C154.832 39.4746 154.833 39.0392 154.833 38.6038C154.833 37.7088 154.834 36.8138 154.836 35.9188Z" fill="white"/>
<path d="M66.5283 32.8849C68.334 32.8849 70.1397 32.8849 72.0001 32.8849C72.0001 33.2961 72.0001 33.7073 72.0001 34.1309C70.6592 34.1309 69.3184 34.1309 67.9369 34.1309C67.9369 35.4003 67.9369 36.6696 67.9369 37.9774C69.1884 37.9774 70.4398 37.9774 71.7292 37.9774C71.7292 38.4065 71.7292 38.8356 71.7292 39.2777C70.4778 39.2777 69.2263 39.2777 67.9369 39.2777C67.9369 41.1549 67.9369 43.0321 67.9369 44.9662C67.4721 44.9662 67.0072 44.9662 66.5283 44.9662C66.5283 40.9793 66.5283 36.9925 66.5283 32.8849Z" fill="white"/>
<path d="M145.317 36.0527C145.842 36.4611 145.971 37.0777 146.059 37.7065C146.078 37.9599 146.079 38.2112 146.077 38.4652C146.077 38.5716 146.077 38.5716 146.077 38.6801C146.077 38.8717 146.076 39.0633 146.075 39.2549C146.074 39.4562 146.074 39.6575 146.074 39.8587C146.073 40.2386 146.072 40.6185 146.07 40.9984C146.069 41.4314 146.068 41.8644 146.067 42.2974C146.065 43.187 146.062 44.0766 146.059 44.9661C145.63 44.9661 145.201 44.9661 144.758 44.9661C144.758 44.7553 144.757 44.5445 144.756 44.3274C144.753 43.6304 144.75 42.9335 144.746 42.2366C144.743 41.8141 144.741 41.3916 144.74 40.9691C144.738 40.6007 144.737 40.2323 144.734 39.8639C144.733 39.669 144.732 39.4741 144.731 39.2791C144.731 39.0611 144.729 38.8431 144.728 38.6251C144.728 38.561 144.728 38.4969 144.728 38.4309C144.723 37.9861 144.665 37.6321 144.427 37.2528C144.141 36.9924 143.803 36.9169 143.421 36.9328C142.987 36.9855 142.592 37.1391 142.266 37.4357C141.872 37.9392 141.817 38.4427 141.816 39.0618C141.815 39.1258 141.815 39.1898 141.814 39.2557C141.812 39.4662 141.811 39.6767 141.81 39.8871C141.81 40.0335 141.808 40.1798 141.807 40.3262C141.805 40.6713 141.803 41.0165 141.801 41.3617C141.799 41.7549 141.796 42.148 141.794 42.5412C141.788 43.3495 141.783 44.1578 141.779 44.9661C141.35 44.9661 140.921 44.9661 140.479 44.9661C140.479 41.9805 140.479 38.9949 140.479 35.9187C140.872 35.9187 141.265 35.9187 141.67 35.9187C141.697 36.3746 141.697 36.3746 141.725 36.8397C141.77 36.7749 141.816 36.7101 141.863 36.6433C142.611 35.6574 144.264 35.3821 145.317 36.0527Z" fill="white"/>
<path d="M3.65782 10.1906C3.94752 10.2377 4.21317 10.3455 4.48497 10.453C4.54117 10.4748 4.59737 10.4966 4.65527 10.519C4.83846 10.5901 5.02137 10.6618 5.20429 10.7336C5.33156 10.7832 5.45886 10.8326 5.58617 10.8821C5.8425 10.9816 6.09875 11.0815 6.35492 11.1814C6.81125 11.3594 7.26856 11.5347 7.72596 11.7099C8.38978 11.9643 9.05271 12.221 9.71445 12.4808C9.77782 12.5057 9.8412 12.5305 9.9065 12.5562C10.3336 12.7243 10.3336 12.7243 10.456 12.7855C10.3846 12.9932 10.299 13.125 10.1479 13.2833C9.94633 13.5009 9.78284 13.7291 9.62387 13.9791C9.51664 14.1078 9.48086 14.1132 9.31828 14.1399C9.19176 14.1448 9.06509 14.1465 8.93847 14.1465C8.90023 14.1465 8.86199 14.1465 8.8226 14.1466C8.69449 14.1467 8.5664 14.1464 8.43829 14.1461C8.34646 14.1461 8.25462 14.1461 8.16278 14.1461C7.91342 14.1461 7.66405 14.1458 7.41468 14.1454C7.15409 14.1451 6.89351 14.1451 6.63292 14.145C6.13944 14.1448 5.64596 14.1444 5.15248 14.1438C4.59068 14.1432 4.02887 14.1429 3.46707 14.1427C2.31138 14.1421 1.15569 14.1411 0 14.1399C0.0876662 13.9553 0.188406 13.826 0.328442 13.6761C0.505309 13.4837 0.673442 13.2879 0.836343 13.0835C0.99937 12.8816 1.1688 12.696 1.3544 12.5147C1.58281 12.2915 1.78254 12.0558 1.98166 11.8066C2.15639 11.5952 2.34214 11.3954 2.52924 11.195C2.68009 11.0334 2.8285 10.8706 2.97291 10.7031C3.00189 10.6703 3.03088 10.6375 3.06074 10.6037C3.11594 10.5403 3.16967 10.4756 3.222 10.4098C3.36706 10.2404 3.43075 10.184 3.65782 10.1906Z" fill="#A1C75C"/>
<path d="M37.8691 32.8849C40.2648 32.8849 42.6605 32.8849 45.1287 32.8849C45.1287 33.314 45.1287 33.743 45.1287 34.1851C44.1812 34.1851 43.2337 34.1851 42.2574 34.1851C42.2574 37.7429 42.2574 41.3006 42.2574 44.9662C41.7926 44.9662 41.3277 44.9662 40.8488 44.9662C40.8488 41.4084 40.8488 37.8507 40.8488 34.1851C39.8655 34.1851 38.8822 34.1851 37.8691 34.1851C37.8691 33.756 37.8691 33.327 37.8691 32.8849Z" fill="white"/>
<path d="M83.8912 36.1875C84.3781 36.5839 84.7043 37.1625 84.8249 37.778C84.8588 38.1144 84.8452 38.4525 84.8395 38.79C84.4283 38.79 84.0171 38.79 83.5935 38.79C83.5723 38.6493 83.551 38.5085 83.5292 38.3634C83.454 37.9168 83.3524 37.4905 83.0111 37.1681C82.5975 36.9057 82.2327 36.8456 81.7515 36.9481C81.3877 37.0584 81.179 37.2722 80.993 37.5982C80.5859 38.3973 80.5873 39.4076 80.5956 40.2839C80.5969 40.4296 80.5967 40.5752 80.5963 40.7209C80.5842 42.3032 80.5842 42.3032 81.2639 43.6659C81.5939 43.9191 81.9332 44.0113 82.3474 43.9909C82.6642 43.9342 82.9513 43.8101 83.1601 43.5575C83.5272 42.998 83.5883 42.3682 83.6477 41.7155C84.0589 41.7155 84.4701 41.7155 84.8937 41.7155C85.0846 42.2883 84.8401 43.1666 84.5879 43.7033C84.2226 44.403 83.7817 44.8345 83.0217 45.0893C82.3365 45.2929 81.4786 45.2734 80.8305 44.9661C80.029 44.5183 79.6617 43.8067 79.405 42.9548C78.9152 41.0963 78.8824 38.5969 79.8433 36.8687C80.1952 36.2837 80.7127 35.9448 81.3577 35.749C82.2226 35.5461 83.159 35.6865 83.8912 36.1875Z" fill="white"/>
<path d="M8.72235 15.6569C8.66735 15.988 8.58844 16.3084 8.48871 16.6287C8.4785 16.6639 8.46829 16.6992 8.45778 16.7355C8.37819 16.9814 8.29598 17.0559 8.07223 17.1738C7.98439 17.2136 7.8956 17.2514 7.80609 17.2873C7.75438 17.3081 7.70266 17.329 7.64938 17.3505C7.5938 17.3726 7.53822 17.3948 7.48095 17.4176C7.39366 17.4527 7.39366 17.4527 7.3046 17.4886C7.11587 17.5645 6.92701 17.64 6.73815 17.7156C6.60825 17.7678 6.47837 17.82 6.34849 17.8722C6.09532 17.974 5.8421 18.0757 5.58886 18.1774C5.21074 18.3292 4.83318 18.4824 4.45598 18.6366C4.34643 18.6813 4.23688 18.726 4.12733 18.7708C4.07375 18.7926 4.02018 18.8145 3.96498 18.837C3.77043 18.9164 3.5758 18.9956 3.38114 19.0747C3.34537 19.0892 3.30961 19.1037 3.27276 19.1187C3.09035 19.1928 2.9079 19.2668 2.72539 19.3407C2.38177 19.4799 2.0385 19.6198 1.69629 19.7624C1.53724 19.8286 1.37801 19.8944 1.21877 19.9602C1.14286 19.9917 1.06703 20.0234 0.991301 20.0553C0.886103 20.0997 0.780635 20.1433 0.675085 20.1867C0.615191 20.2118 0.555298 20.2368 0.493589 20.2626C0.319085 20.3179 0.181829 20.3265 0 20.316C0.130266 19.898 0.298233 19.5011 0.474041 19.1005C0.50477 19.0301 0.535486 18.9597 0.56619 18.8892C0.648637 18.7004 0.731398 18.5116 0.814251 18.3229C0.868138 18.2002 0.92194 18.0774 0.975725 17.9545C1.06707 17.746 1.15858 17.5375 1.25022 17.3291C1.2855 17.2489 1.32075 17.1686 1.35597 17.0884C1.40563 16.9753 1.45544 16.8623 1.50529 16.7493C1.53372 16.6848 1.56215 16.6202 1.59144 16.5537C1.68811 16.3423 1.79113 16.1352 1.89616 15.9278C3.10347 15.8555 4.31084 15.7925 5.51925 15.7418C5.68546 15.7348 5.85165 15.7277 6.01784 15.7204C6.91943 15.6808 7.81962 15.6431 8.72235 15.6569Z" fill="#A1C75C"/>
<path d="M125.905 33.535C126.334 33.535 126.763 33.535 127.205 33.535C127.205 34.3216 127.205 35.1082 127.205 35.9187C127.67 35.9187 128.135 35.9187 128.614 35.9187C128.614 36.2763 128.614 36.6338 128.614 37.0022C128.149 37.0022 127.684 37.0022 127.205 37.0022C127.211 37.8532 127.217 38.7042 127.223 39.5551C127.226 39.9502 127.229 40.3454 127.232 40.7405C127.234 41.0848 127.237 41.4292 127.239 41.7736C127.241 41.9559 127.242 42.1383 127.243 42.3206C127.245 42.5241 127.246 42.7277 127.248 42.9312C127.249 43.022 127.249 43.022 127.249 43.1146C127.25 43.17 127.25 43.2255 127.251 43.2826C127.251 43.3308 127.251 43.3789 127.252 43.4285C127.259 43.5531 127.27 43.657 127.313 43.7743C127.578 43.9037 127.857 43.9054 128.146 43.9165C128.3 43.9232 128.455 43.9299 128.614 43.9368C128.614 44.3301 128.614 44.7234 128.614 45.1287C128.381 45.1331 128.149 45.1363 127.916 45.1388C127.851 45.1402 127.786 45.1415 127.718 45.1429C127.185 45.1473 126.711 45.0952 126.284 44.7494C125.934 44.3999 125.886 43.9609 125.885 43.4868C125.885 43.4232 125.886 43.3596 125.886 43.2941C125.886 43.2258 125.886 43.1576 125.886 43.0873C125.886 42.9016 125.887 42.716 125.888 42.5303C125.889 42.3357 125.889 42.1412 125.89 41.9466C125.89 41.5788 125.891 41.211 125.893 40.8432C125.895 40.4242 125.896 40.0052 125.897 39.5862C125.898 38.7249 125.901 37.8636 125.905 37.0022C125.511 37.0022 125.118 37.0022 124.713 37.0022C124.713 36.6447 124.713 36.2871 124.713 35.9187C125.106 35.9187 125.5 35.9187 125.905 35.9187C125.905 35.1321 125.905 34.3454 125.905 33.535Z" fill="white"/>
<path d="M111.819 33.535C112.23 33.535 112.642 33.535 113.065 33.535C113.065 34.3216 113.065 35.1082 113.065 35.9187C113.548 35.9187 114.031 35.9187 114.528 35.9187C114.528 36.2763 114.528 36.6338 114.528 37.0022C114.045 37.0022 113.563 37.0022 113.065 37.0022C113.069 37.8132 113.073 38.6242 113.078 39.4351C113.081 39.8117 113.083 40.1883 113.084 40.5649C113.085 40.9285 113.088 41.292 113.09 41.6556C113.091 41.7941 113.092 41.9327 113.092 42.0713C113.093 42.2657 113.094 42.46 113.096 42.6544C113.096 42.7114 113.096 42.7684 113.096 42.8272C113.1 43.1621 113.131 43.4701 113.282 43.7743C113.497 43.9301 113.798 43.9066 114.057 43.9165C114.213 43.9232 114.368 43.9299 114.528 43.9368C114.528 44.3301 114.528 44.7234 114.528 45.1287C114.297 45.1331 114.065 45.1363 113.834 45.1388C113.769 45.1402 113.704 45.1415 113.638 45.1429C113.059 45.1477 112.553 45.1037 112.122 44.6864C111.878 44.405 111.812 44.1129 111.813 43.7517C111.813 43.6921 111.813 43.6326 111.813 43.5712C111.813 43.5061 111.813 43.4411 111.813 43.374C111.813 43.3053 111.813 43.2366 111.813 43.1658C111.813 42.9775 111.813 42.7892 111.814 42.601C111.814 42.4042 111.814 42.2074 111.814 42.0106C111.814 41.638 111.815 41.2653 111.815 40.8927C111.816 40.4685 111.816 40.0443 111.817 39.62C111.817 38.7474 111.818 37.8748 111.819 37.0022C111.408 37.0022 110.997 37.0022 110.573 37.0022C110.573 36.6447 110.573 36.2871 110.573 35.9187C110.984 35.9187 111.396 35.9187 111.819 35.9187C111.819 35.1321 111.819 34.3454 111.819 33.535Z" fill="white"/>
<path d="M8.28886 18.7991C8.31005 19.0337 8.327 19.2684 8.34303 19.5034C8.34862 19.5622 8.35421 19.621 8.35996 19.6815C8.38422 20.0807 8.38422 20.0807 8.28314 20.2593C8.1839 20.3642 8.07986 20.4466 7.9638 20.5327C7.91128 20.5737 7.85877 20.6147 7.80466 20.6569C7.68519 20.7499 7.56488 20.8417 7.44405 20.9329C7.21024 21.1106 6.98672 21.2996 6.76198 21.4886C6.58345 21.6379 6.40195 21.7831 6.2198 21.928C6.02934 22.0803 5.84026 22.2342 5.65116 22.3882C5.32732 22.6518 5.00198 22.9135 4.67559 23.1739C4.42511 23.374 4.17671 23.5764 3.92895 23.7799C3.79942 23.8858 3.66909 23.9905 3.53829 24.0948C3.2534 24.322 2.97075 24.5519 2.68815 24.7819C2.61816 24.8388 2.54802 24.8956 2.47771 24.9522C2.39513 25.0199 2.31519 25.0908 2.23574 25.1622C2.11278 25.246 2.11278 25.246 1.99675 25.2242C1.96353 25.2135 1.93031 25.2028 1.89608 25.1918C1.85352 24.7313 1.81113 24.2707 1.76893 23.8101C1.74933 23.5962 1.72968 23.3823 1.7099 23.1684C1.6908 22.9619 1.67185 22.7553 1.653 22.5488C1.64579 22.4701 1.63853 22.3914 1.63122 22.3128C1.62096 22.2023 1.61089 22.0918 1.60086 21.9814C1.5922 21.8872 1.5922 21.8872 1.58336 21.7911C1.57155 21.6237 1.56878 21.4589 1.57102 21.2912C2.15193 21.041 2.74329 20.8197 3.33513 20.597C3.4426 20.5565 3.55007 20.516 3.65754 20.4755C4.49875 20.1585 5.34101 19.8444 6.18394 19.5321C6.27384 19.4987 6.36374 19.4654 6.45364 19.432C6.49692 19.416 6.5402 19.4 6.58479 19.3835C6.82495 19.2943 7.06441 19.2035 7.30332 19.111C7.35537 19.0909 7.40743 19.0709 7.46106 19.0502C7.56169 19.0112 7.66223 18.9721 7.76268 18.9327C7.83049 18.9065 7.83049 18.9065 7.89968 18.8797C7.93959 18.8641 7.97951 18.8485 8.02063 18.8325C8.12633 18.7991 8.12633 18.7991 8.28886 18.7991Z" fill="#A1C75C"/>
<path d="M95.2412 33.535C95.6524 33.535 96.0636 33.535 96.4872 33.535C96.4872 34.3216 96.4872 35.1082 96.4872 35.9187C96.952 35.9187 97.4169 35.9187 97.8958 35.9187C97.8958 36.2763 97.8958 36.6338 97.8958 37.0022C97.431 37.0022 96.9661 37.0022 96.4872 37.0022C96.4906 37.8372 96.4947 38.6722 96.5 39.5071C96.5024 39.8948 96.5046 40.2825 96.506 40.6702C96.5072 41.0082 96.509 41.3462 96.5115 41.6842C96.5128 41.8631 96.5138 42.042 96.5142 42.2209C96.5147 42.4208 96.5162 42.6206 96.518 42.8205C96.5179 42.8796 96.5178 42.9387 96.5177 42.9996C96.5214 43.297 96.5319 43.5194 96.7039 43.7743C96.8511 43.8778 96.9776 43.8974 97.1551 43.905C97.1942 43.907 97.2332 43.9089 97.2735 43.9109C97.3469 43.9136 97.3469 43.9136 97.4218 43.9165C97.5782 43.9232 97.7346 43.9299 97.8958 43.9368C97.8958 44.3301 97.8958 44.7234 97.8958 45.1287C96.2169 45.1738 96.2169 45.1738 95.6469 44.8298C95.3047 44.4882 95.2104 44.1048 95.2075 43.6322C95.2084 43.5673 95.2094 43.5024 95.2104 43.4355C95.2104 43.3657 95.2103 43.2959 95.2103 43.2239C95.2102 43.0341 95.2118 42.8443 95.2137 42.6545C95.2154 42.4555 95.2156 42.2566 95.2159 42.0576C95.2167 41.6815 95.2189 41.3055 95.2217 40.9294C95.2247 40.501 95.2262 40.0726 95.2275 39.6441C95.2304 38.7635 95.2352 37.8829 95.2412 37.0022C94.83 37.0022 94.4188 37.0022 93.9951 37.0022C93.9951 36.6447 93.9951 36.2871 93.9951 35.9187C94.4063 35.9187 94.8175 35.9187 95.2412 35.9187C95.2412 35.1321 95.2412 34.3454 95.2412 33.535Z" fill="white"/>
<path d="M8.77655 21.5079C8.93908 21.562 8.93908 21.562 9.00812 21.6675C9.08081 21.8159 9.15291 21.9645 9.2235 22.114C9.24906 22.1653 9.27462 22.2166 9.30095 22.2694C9.47997 22.6444 9.47997 22.6444 9.48359 22.8745C9.41045 23.0676 9.31488 23.2394 9.20657 23.4142C9.1571 23.4962 9.10765 23.5781 9.05822 23.6601C9.03073 23.7053 9.00324 23.7505 8.97492 23.7971C8.80288 24.0813 8.63426 24.3676 8.46503 24.6535C8.42756 24.7167 8.39007 24.7799 8.35258 24.8431C8.0778 25.3064 7.80574 25.7714 7.53478 26.237C7.29861 26.6426 7.06029 27.0469 6.82093 27.4507C6.66602 27.7123 6.51219 27.9745 6.35979 28.2376C6.02215 28.8203 5.6825 29.3985 5.30928 29.9593C5.15334 29.8261 5.09611 29.6948 5.02528 29.5039C5.00249 29.4432 4.97971 29.3825 4.95623 29.32C4.93195 29.2539 4.90766 29.1878 4.88264 29.1196C4.85701 29.0505 4.83135 28.9815 4.80566 28.9124C4.76469 28.8022 4.72378 28.692 4.68306 28.5817C4.59147 28.3338 4.49802 28.0867 4.40329 27.84C4.33721 27.6678 4.27168 27.4953 4.20623 27.3228C4.17419 27.2388 4.14193 27.1547 4.10945 27.0708C4.06377 26.9526 4.01897 26.8341 3.97435 26.7155C3.96055 26.6805 3.94676 26.6454 3.93255 26.6092C3.8569 26.4051 3.82953 26.2667 3.9007 26.0587C3.98556 25.9507 3.98556 25.9507 4.0937 25.8487C4.13337 25.811 4.17304 25.7733 4.21391 25.7345C4.35256 25.6085 4.49321 25.4852 4.63504 25.3628C5.11902 24.9361 5.58654 24.4903 6.0372 24.0285C6.21939 23.8431 6.41022 23.6714 6.60677 23.5014C6.78803 23.3426 6.96262 23.1768 7.13772 23.0113C7.67765 22.503 8.22428 22.0027 8.77655 21.5079Z" fill="#A1C75C"/>
<path d="M10.1853 24.1083C10.421 24.1556 10.5763 24.2831 10.7609 24.43C10.8085 24.467 10.8085 24.467 10.857 24.5048C10.9821 24.6028 11.1022 24.7002 11.2146 24.8126C11.2235 24.9155 11.2235 24.9155 11.2168 25.043C11.2145 25.091 11.2123 25.1391 11.2099 25.1887C11.2068 25.2414 11.2037 25.2942 11.2005 25.3485C11.1962 25.4316 11.1962 25.4316 11.1918 25.5165C11.1821 25.6973 11.1715 25.878 11.1605 26.0587C11.1569 26.1174 11.1534 26.1762 11.1497 26.2367C11.1225 26.6784 11.0926 27.1198 11.0623 27.5612C11.0528 27.7012 11.0432 27.8411 11.0337 27.981C11.014 28.2713 10.9941 28.5616 10.9742 28.8519C10.9512 29.1871 10.9284 29.5222 10.9058 29.8574C10.8838 30.1823 10.8617 30.5071 10.8394 30.8319C10.83 30.9694 10.8207 31.1068 10.8114 31.2443C10.7985 31.4351 10.7854 31.6259 10.7721 31.8167C10.7684 31.8735 10.7646 31.9302 10.7607 31.9886C10.7571 32.0404 10.7534 32.0922 10.7497 32.1455C10.7451 32.2129 10.7451 32.2129 10.7403 32.2818C10.7271 32.3973 10.7271 32.3973 10.6729 32.5598C10.4272 32.5123 10.2798 32.3698 10.0973 32.2077C10.0467 32.1635 10.0467 32.1635 9.99519 32.1185C9.89564 32.0313 9.79659 31.9435 9.69772 31.8555C9.62386 31.7899 9.62386 31.7899 9.54852 31.723C9.3682 31.5615 9.18926 31.3986 9.0112 31.2346C8.71357 30.9614 8.41047 30.6995 8.09465 30.4474C8.05156 30.4115 8.00848 30.3756 7.96408 30.3386C7.92155 30.3083 7.87902 30.278 7.8352 30.2467C7.72186 30.0856 7.7317 29.971 7.76296 29.7803C7.83433 29.5103 7.94792 29.2592 8.06318 29.0053C8.12776 28.8631 8.19081 28.7202 8.25401 28.5774C8.28738 28.502 8.32084 28.4267 8.35437 28.3514C8.51801 27.9835 8.67538 27.6132 8.83181 27.2422C8.90989 27.0571 8.98827 26.8722 9.06665 26.6872C9.08245 26.6499 9.09826 26.6126 9.11454 26.5741C9.2944 26.1498 9.47539 25.7259 9.65677 25.3022C9.69283 25.218 9.72887 25.1337 9.76488 25.0495C9.81494 24.9323 9.86509 24.8152 9.91527 24.6981C9.93007 24.6635 9.94488 24.6288 9.96014 24.5931C10.0306 24.4289 10.1031 24.267 10.1853 24.1083Z" fill="#A1C75C"/>
<path d="M164.912 32.8849C165.341 32.8849 165.77 32.8849 166.212 32.8849C166.212 36.8717 166.212 40.8585 166.212 44.9662C165.783 44.9662 165.354 44.9662 164.912 44.9662C164.912 40.9793 164.912 36.9925 164.912 32.8849Z" fill="white"/>
<path d="M89.2822 32.8849C89.6934 32.8849 90.1046 32.8849 90.5283 32.8849C90.5283 36.8717 90.5283 40.8585 90.5283 44.9662C90.1171 44.9662 89.7059 44.9662 89.2822 44.9662C89.2822 40.9793 89.2822 36.9925 89.2822 32.8849Z" fill="white"/>
<path d="M133.11 35.7562C133.11 36.2211 133.11 36.6859 133.11 37.1648C133.03 37.138 133.03 37.138 132.948 37.1106C132.338 37.0656 131.847 37.1076 131.36 37.5034C130.885 37.9541 130.695 38.5446 130.667 39.1897C130.664 39.3419 130.662 39.4939 130.661 39.6461C130.66 39.7326 130.66 39.7326 130.66 39.8208C130.658 40.0105 130.656 40.2001 130.655 40.3898C130.654 40.5216 130.653 40.6535 130.652 40.7853C130.649 41.1317 130.646 41.4781 130.643 41.8244C130.641 42.1782 130.638 42.5319 130.635 42.8856C130.629 43.5791 130.623 44.2726 130.618 44.9662C130.207 44.9662 129.796 44.9662 129.372 44.9662C129.372 41.9805 129.372 38.9949 129.372 35.9188C129.765 35.9188 130.159 35.9188 130.564 35.9188C130.582 36.2763 130.6 36.6339 130.618 37.0023C130.69 36.8928 130.761 36.7833 130.835 36.6705C131.175 36.1702 131.591 35.8698 132.182 35.7156C132.832 35.6636 132.832 35.6636 133.11 35.7562Z" fill="white"/>
<path d="M12.5686 25.5169C13.3277 25.6309 13.3277 25.6309 13.5979 25.8961C13.8007 26.2333 13.8648 26.6453 13.9535 27.0237C13.9831 27.1407 14.0131 27.2575 14.0433 27.3744C14.1107 27.6353 14.1766 27.8965 14.242 28.158C14.3683 28.6597 14.5067 29.158 14.6453 29.6565C14.6703 29.7469 14.6954 29.8372 14.7205 29.9276C14.7706 30.108 14.8207 30.2885 14.8708 30.4689C14.98 30.862 15.0888 31.2551 15.1966 31.6485C15.2184 31.728 15.2403 31.8075 15.2623 31.8869C15.2926 31.9963 15.3226 32.1057 15.3525 32.2151C15.3694 32.2767 15.3864 32.3383 15.4039 32.4018C15.4399 32.5598 15.4399 32.5598 15.4399 32.7765C15.0736 32.7016 14.7253 32.5997 14.3714 32.4798C14.318 32.4619 14.2646 32.444 14.2095 32.4256C14.0406 32.369 13.8717 32.312 13.7029 32.2551C13.5877 32.2164 13.4724 32.1777 13.3572 32.1391C13.0762 32.0448 12.7953 31.9503 12.5144 31.8555C12.5128 31.2054 12.5116 30.5553 12.511 29.9052C12.511 29.8575 12.5109 29.8098 12.5109 29.7606C12.5097 28.3454 12.5156 26.9314 12.5686 25.5169Z" fill="#A1C75C"/>
<path d="M92.0996 35.9188C92.5466 35.9188 92.9935 35.9188 93.454 35.9188C93.454 38.9044 93.454 41.89 93.454 44.9662C93.0071 44.9662 92.5601 44.9662 92.0996 44.9662C92.0996 41.9805 92.0996 38.9949 92.0996 35.9188Z" fill="white"/>
<path d="M86.3564 35.9188C86.8034 35.9188 87.2504 35.9188 87.7108 35.9188C87.7108 38.9044 87.7108 41.89 87.7108 44.9662C87.2639 44.9662 86.8169 44.9662 86.3564 44.9662C86.3564 41.9805 86.3564 38.9949 86.3564 35.9188Z" fill="white"/>
<path d="M162.041 35.9188C162.47 35.9188 162.899 35.9188 163.341 35.9188C163.341 38.9044 163.341 41.89 163.341 44.9662C162.912 44.9662 162.483 44.9662 162.041 44.9662C162.041 41.9805 162.041 38.9949 162.041 35.9188Z" fill="white"/>
<path d="M15.8498 25.9403C16.2962 26.0944 16.5267 26.6388 16.7638 27.0203C16.8311 27.1249 16.8986 27.2293 16.9663 27.3336C17.1082 27.5528 17.2489 27.7727 17.3888 27.9932C17.6074 28.3365 17.8322 28.6755 18.0585 29.0138C18.1317 29.1234 18.2048 29.2329 18.2779 29.3425C18.3132 29.3955 18.3486 29.4484 18.385 29.503C18.4198 29.5552 18.4547 29.6075 18.4907 29.6614C18.5255 29.7136 18.5604 29.7658 18.5963 29.8195C18.6944 29.9669 18.7921 30.1146 18.8896 30.2624C18.919 30.3063 18.9483 30.3502 18.9786 30.3955C19.005 30.4357 19.0315 30.476 19.0587 30.5175C19.0819 30.5525 19.1051 30.5874 19.1289 30.6234C19.178 30.7178 19.178 30.7178 19.178 30.8803C18.966 30.9173 18.7537 30.9531 18.5415 30.9887C18.4823 30.999 18.4231 31.0094 18.3622 31.02C17.9622 31.0863 17.5787 31.1102 17.1735 31.097C16.9905 30.7023 16.8353 30.2988 16.6825 29.8916C16.6565 29.8224 16.6304 29.7533 16.6043 29.6841C16.5501 29.5405 16.496 29.397 16.4419 29.2534C16.3388 28.9796 16.2348 28.7062 16.1309 28.4327C16.0327 28.1743 15.9348 27.9158 15.8369 27.6572C15.7885 27.5294 15.74 27.4016 15.6915 27.2739C15.6221 27.0912 15.553 26.9085 15.4839 26.7257C15.4629 26.6707 15.442 26.6156 15.4204 26.5589C15.392 26.4836 15.392 26.4836 15.3631 26.4068C15.3464 26.3629 15.3298 26.319 15.3126 26.2737C15.2773 26.167 15.2773 26.167 15.2773 26.0587C15.4693 25.9627 15.6353 25.9371 15.8498 25.9403Z" fill="#A1C75C"/>
<path d="M104.506 43.2867C104.989 43.2867 105.471 43.2867 105.969 43.2867C105.972 43.5834 105.976 43.8801 105.978 44.1768C105.978 44.2775 105.979 44.3782 105.981 44.4788C105.992 45.3171 105.976 46.1591 105.375 46.8155C105.114 47.0537 104.87 47.2415 104.506 47.2415C104.506 46.9734 104.506 46.7052 104.506 46.4289C104.613 46.3753 104.72 46.3216 104.831 46.2664C105.104 45.8797 105.114 45.425 105.156 44.9661C104.941 44.9661 104.727 44.9661 104.506 44.9661C104.506 44.4119 104.506 43.8577 104.506 43.2867Z" fill="white"/>
<path d="M119.045 32.8002C119.111 32.8024 119.177 32.8046 119.244 32.8069C119.406 32.8126 119.568 32.8206 119.729 32.8307C119.632 33.0399 119.497 33.1926 119.34 33.3589C119.285 33.4173 119.231 33.4757 119.177 33.5342C119.15 33.5623 119.124 33.5905 119.097 33.6195C119.008 33.7161 118.921 33.8147 118.835 33.9142C118.647 34.1316 118.452 34.3425 118.257 34.5529C118.151 34.6674 118.055 34.7715 117.979 34.908C117.887 34.9978 117.887 34.9978 117.682 35.0189C117.602 35.0175 117.523 35.0149 117.444 35.0113C117.403 35.0103 117.363 35.0093 117.321 35.0083C117.221 35.0058 117.121 35.0019 117.021 34.9978C117.098 34.7854 117.199 34.6017 117.318 34.4094C117.355 34.349 117.392 34.2885 117.431 34.2262C117.45 34.1949 117.47 34.1636 117.49 34.1314C117.548 34.0373 117.606 33.943 117.664 33.8486C117.739 33.7272 117.815 33.6064 117.892 33.4861C117.996 33.3237 117.996 33.3237 118.071 33.1658C118.296 32.7348 118.593 32.7716 119.045 32.8002Z" fill="white"/>
<path d="M175.477 43.2867C175.959 43.2867 176.442 43.2867 176.939 43.2867C176.939 43.8409 176.939 44.3951 176.939 44.9661C176.457 44.9661 175.974 44.9661 175.477 44.9661C175.477 44.4119 175.477 43.8577 175.477 43.2867Z" fill="white"/>
<path d="M92.0996 32.8849C92.5466 32.8849 92.9935 32.8849 93.454 32.8849C93.454 33.4391 93.454 33.9933 93.454 34.5643C93.0071 34.5643 92.5601 34.5643 92.0996 34.5643C92.0996 34.0101 92.0996 33.4559 92.0996 32.8849Z" fill="white"/>
<path d="M86.3564 32.8849C86.8034 32.8849 87.2504 32.8849 87.7108 32.8849C87.7108 33.4391 87.7108 33.9933 87.7108 34.5643C87.2639 34.5643 86.8169 34.5643 86.3564 34.5643C86.3564 34.0101 86.3564 33.4559 86.3564 32.8849Z" fill="white"/>
<path d="M162.041 32.8849C162.47 32.8849 162.899 32.8849 163.341 32.8849C163.341 33.4391 163.341 33.9933 163.341 34.5643C162.912 34.5643 162.483 34.5643 162.041 34.5643C162.041 34.0101 162.041 33.4559 162.041 32.8849Z" fill="white"/>
</g>
<defs>
<clipPath id="clip0_2946_8931">
<rect width="176.939" height="48" fill="white"/>
</clipPath>
</defs>
</svg>
